# Blender 4.3.2
# www.blender.org
o Tree01
v -0.115012 0.117063 0.000000
v -0.110540 0.112512 1.630763
v 0.115012 0.117063 0.000000
v 0.110540 0.112512 1.630763
v -0.115012 -0.117063 0.000000
v -0.110540 -0.112512 1.630763
v 0.115012 -0.117063 0.000000
v 0.110540 -0.112512 1.630763
v -0.598648 0.468343 1.921940
v 0.605051 0.468343 1.982269
v 0.603320 -0.737332 1.972371
v -0.602013 -0.737332 1.912444
v 0.319659 0.325360 1.630763
v 0.319659 -0.325360 1.630763
v -0.319659 -0.325360 1.630763
v -0.319659 0.325360 1.630763
v -0.599400 0.468343 3.499516
v 0.360242 0.468343 3.523859
v 0.360242 -0.647394 3.523859
v -0.599400 -0.647394 3.499516
v -0.318828 0.324514 3.683337
v 0.225087 0.324514 3.658994
v 0.225087 -0.324514 3.658994
v -0.318828 -0.324514 3.683337
v 0.737856 -0.807329 2.710893
v -0.652970 -0.807329 2.770821
v -0.656334 0.667275 2.761325
v 0.736124 0.667275 2.700996
vn -0.0000 1.0000 0.0028
vn 1.0000 -0.0000 0.0027
vn -0.0000 -1.0000 0.0028
vn -1.0000 -0.0000 0.0027
vn 0.3655 -0.2405 -0.8992
vn 0.6656 0.5947 -0.4509
vn 0.6123 -0.6401 -0.4640
vn -0.6954 -0.7170 0.0485
vn 0.4911 -0.6022 0.6294
vn -0.6343 -0.5675 0.5249
vn -0.6303 -0.6295 -0.4544
vn -0.3215 -0.2169 -0.9218
vn -0.2942 0.4661 -0.8344
vn 0.3351 0.4807 -0.8103
vn -0.6814 0.5936 -0.4282
vn -0.0000 -0.0000 -1.0000
vn -0.2177 -0.1772 0.9598
vn -0.6769 0.7360 0.0101
vn 0.5352 0.6036 0.5910
vn 0.7187 0.6928 0.0593
vn -0.6629 0.5535 0.5042
vn 0.7394 -0.6647 0.1071
vn 0.3281 0.2803 0.9021
vn 0.3601 -0.1273 0.9242
vn -0.1985 0.3611 0.9112
vt 0.346977 0.132126
vt 0.152691 0.177155
vt 0.150324 0.146848
vt 0.351714 0.192764
vt 0.173658 0.236502
vt 0.171290 0.206195
vt 0.344606 0.101776
vt 0.149215 0.146935
vt 0.146848 0.116627
vt 0.349344 0.162429
vt 0.162423 0.206887
vt 0.160055 0.176580
vt 0.716386 0.653386
vt 0.646289 0.845787
vt 0.646289 0.553675
vt 0.738554 0.517637
vt 0.564123 0.827138
vt 0.564123 0.565855
vt 0.908538 0.553292
vt 0.874042 0.653155
vt 0.568922 0.884724
vt 0.810825 0.903897
vt 0.712309 0.950264
vt 0.693326 0.934640
vt 0.885615 0.853999
vt 0.850982 0.934640
vt 0.822549 0.704799
vt 0.874273 0.810812
vt 0.822629 0.759318
vt 0.716617 0.811042
vt 0.768110 0.759398
vt 0.768030 0.704879
vt 0.887156 0.630310
vt 0.713285 0.708537
vt 0.635438 0.630310
vt 0.568922 0.602564
vt 0.920765 0.577604
vt 0.953222 0.784824
vt 0.576525 0.660150
vt 0.885666 0.508464
vt 0.933792 0.662340
vt 0.913770 0.792944
vt 0.603327 0.583807
vt 0.873642 0.582077
vt 0.864775 0.865784
vt 0.864775 0.708537
vt 0.761799 0.463509
vt 0.904814 0.528879
vt 0.635438 0.900631
vt 0.713285 0.865784
vt 0.795069 0.530161
vt 0.605333 0.912250
vt 0.897449 0.912250
vt 0.911499 0.862442
vt 0.917573 0.600193
vt 0.349253 0.161255
vt 0.353990 0.221894
vt 0.346882 0.130905
vt 0.351620 0.191558
vt 0.744629 0.943354
vt 0.569425 0.800157
vt 0.593504 0.856189
vt 0.683130 0.468984
vt 0.615345 0.508464
vt 0.556520 0.797100
vt 0.637825 0.531167
s 0
f 2/1/1 3/2/1 1/3/1
f 4/4/2 7/5/2 3/6/2
f 8/7/3 5/8/3 7/9/3
f 6/10/4 1/11/4 5/12/4
s 1
f 14/13/5 10/14/6 11/15/7
f 26/16/8 19/17/9 20/18/10
f 14/13/5 12/19/11 15/20/12
f 16/21/13 10/22/6 13/23/14
f 15/24/12 9/25/15 16/26/13
f 6/27/16 16/28/13 2/29/16
f 2/29/16 13/30/14 4/31/16
f 8/32/16 15/20/12 6/27/16
f 4/31/16 14/13/5 8/32/16
f 19/33/9 24/34/17 20/35/10
f 27/36/18 18/37/19 28/38/20
f 26/39/8 17/40/21 27/41/18
f 25/42/22 18/43/19 19/44/9
f 22/45/23 24/34/17 23/46/24
f 18/37/19 21/47/25 22/48/23
f 17/49/21 24/34/17 21/50/25
f 18/43/19 23/51/24 19/44/9
f 10/52/6 25/42/22 11/53/7
f 9/25/15 26/39/8 27/41/18
f 10/22/6 27/36/18 28/38/20
f 11/54/7 26/16/8 12/55/11
s 0
f 2/1/1 4/56/1 3/2/1
f 4/4/2 8/57/2 7/5/2
f 8/7/3 6/58/3 5/8/3
f 6/10/4 2/59/4 1/11/4
s 1
f 14/13/5 13/30/14 10/14/6
f 26/16/8 25/60/22 19/17/9
f 14/13/5 11/15/7 12/19/11
f 16/21/13 9/61/15 10/22/6
f 15/24/12 12/62/11 9/25/15
f 6/27/16 15/20/12 16/28/13
f 2/29/16 16/28/13 13/30/14
f 8/32/16 14/13/5 15/20/12
f 4/31/16 13/30/14 14/13/5
f 19/33/9 23/46/24 24/34/17
f 27/36/18 17/63/21 18/37/19
f 26/39/8 20/64/10 17/40/21
f 25/42/22 28/65/20 18/43/19
f 22/45/23 21/50/25 24/34/17
f 18/37/19 17/63/21 21/47/25
f 17/49/21 20/35/10 24/34/17
f 18/43/19 22/66/23 23/51/24
f 10/52/6 28/65/20 25/42/22
f 9/25/15 12/62/11 26/39/8
f 10/22/6 9/61/15 27/36/18
f 11/54/7 25/60/22 26/16/8
