# Blender 4.3.2
# www.blender.org
o Tree03
v -0.052190 -0.044262 0.000000
v -0.050161 -0.042542 0.985157
v -0.052190 0.044262 0.000000
v -0.050161 0.042542 0.985157
v 0.052190 -0.044262 0.000000
v 0.050161 -0.042542 0.985157
v 0.052190 0.044262 0.000000
v 0.050161 0.042542 0.985157
v -0.395374 -0.230390 1.297473
v -0.395374 0.232855 1.362182
v 0.411727 0.232188 1.353828
v 0.403518 -0.231685 1.290905
v -0.274668 0.123021 0.985157
v 0.274668 0.123021 0.985157
v 0.274668 -0.123021 0.985157
v -0.274668 -0.123021 0.985157
v -0.395374 -0.222675 2.944826
v -0.395374 0.138640 3.015693
v 0.323196 0.138640 2.976267
v 0.327193 -0.227389 2.909275
v -0.273954 -0.122701 3.186749
v -0.273954 0.086625 3.160639
v 0.273954 0.086625 3.160639
v 0.273954 -0.122701 3.186749
v 0.483855 0.283965 2.179822
v 0.482184 -0.332619 2.284605
v -0.563312 -0.339454 2.243670
v -0.563312 0.283298 2.133090
vn -1.0000 -0.0000 0.0021
vn -0.0000 1.0000 0.0017
vn 1.0000 -0.0000 0.0021
vn -0.0000 -1.0000 0.0017
vn -0.0021 0.9591 -0.2832
vn 0.9686 -0.0345 0.2461
vn 0.9253 0.0348 -0.3776
vn -0.9524 -0.0000 -0.3049
vn -0.0000 -0.9457 -0.3251
vn -0.0000 -0.0000 -1.0000
vn 0.9799 -0.0255 0.1976
vn -0.9828 -0.0355 0.1812
vn 0.0016 -0.9865 0.1639
vn -0.0086 0.9840 0.1778
vn -0.0000 0.1238 0.9923
vn -0.7493 0.0820 0.6571
vn 0.0125 -0.9263 0.3765
vn -0.0000 0.9624 0.2715
vn 0.0002 0.9980 -0.0626
vn 0.0109 -0.9936 -0.1126
vn -0.9762 0.0300 -0.2146
vn 0.9966 -0.0164 -0.0806
vn -0.0000 0.9601 -0.2797
vn 0.9786 0.0319 0.2032
vn 0.9373 -0.0000 -0.3485
vn -0.9371 0.0483 -0.3456
vn -0.0043 -0.9428 -0.3333
vn 0.9632 0.0333 0.2666
vn -0.9732 0.0402 0.2264
vn -0.0001 -0.9861 0.1661
vn 0.0088 0.9871 0.1601
vn -0.8738 -0.0936 0.4772
vn -0.0000 -0.9356 0.3530
vn 0.0178 0.9457 0.3245
vn 0.0023 0.9979 -0.0648
vn -0.0024 -0.9949 -0.1009
vn -0.9835 -0.0316 -0.1782
vn 0.9962 -0.0059 -0.0866
vt 0.346977 0.132126
vt 0.152691 0.177155
vt 0.150324 0.146848
vt 0.351714 0.192764
vt 0.173658 0.236502
vt 0.171290 0.206195
vt 0.344606 0.101776
vt 0.149215 0.146935
vt 0.146848 0.116627
vt 0.349344 0.162429
vt 0.162423 0.206887
vt 0.160055 0.176580
vt 0.716386 0.653386
vt 0.646289 0.845787
vt 0.646289 0.553675
vt 0.738554 0.517637
vt 0.564123 0.827138
vt 0.564123 0.565855
vt 0.874042 0.653155
vt 0.908538 0.553292
vt 0.568922 0.884724
vt 0.810825 0.903897
vt 0.712309 0.950264
vt 0.693326 0.934640
vt 0.885615 0.853999
vt 0.850982 0.934640
vt 0.822549 0.704799
vt 0.874273 0.810812
vt 0.822629 0.759318
vt 0.716617 0.811042
vt 0.768110 0.759398
vt 0.768030 0.704879
vt 0.887156 0.630310
vt 0.713285 0.708537
vt 0.635438 0.630310
vt 0.953222 0.784824
vt 0.683130 0.468984
vt 0.920765 0.577604
vt 0.933792 0.662340
vt 0.615345 0.508464
vt 0.885666 0.508464
vt 0.556520 0.797100
vt 0.873642 0.582077
vt 0.913770 0.792944
vt 0.864775 0.865784
vt 0.864775 0.708537
vt 0.761799 0.463509
vt 0.904814 0.528879
vt 0.713285 0.865784
vt 0.635438 0.900631
vt 0.637825 0.531167
vt 0.795069 0.530161
vt 0.605333 0.912250
vt 0.897449 0.912250
vt 0.576525 0.660150
vt 0.569425 0.800157
vt 0.917573 0.600193
vt 0.744629 0.943354
vt 0.349253 0.161255
vt 0.353990 0.221894
vt 0.346882 0.130905
vt 0.351620 0.191558
vt 0.593504 0.856189
vt 0.568922 0.602564
vt 0.603327 0.583807
vt 0.911499 0.862442
s 0
f 2/1/1 3/2/1 1/3/1
f 4/4/2 7/5/2 3/6/2
f 8/7/3 5/8/3 7/9/3
f 6/10/4 1/11/4 5/12/4
f 14/13/5 10/14/5 11/15/5
f 26/16/6 19/17/6 20/18/6
f 15/19/7 11/15/7 12/20/7
f 16/21/8 10/22/8 13/23/8
f 15/24/9 9/25/9 16/26/9
f 6/27/10 16/28/10 2/29/10
f 2/29/10 13/30/10 4/31/10
f 8/32/10 15/19/10 6/27/10
f 4/31/10 14/13/10 8/32/10
f 19/33/11 24/34/11 20/35/11
f 28/36/12 17/37/12 18/38/12
f 27/39/13 20/40/13 17/41/13
f 28/42/14 19/43/14 25/44/14
f 22/45/15 24/34/15 23/46/15
f 18/38/16 21/47/16 22/48/16
f 20/35/17 21/49/17 17/50/17
f 19/43/18 22/51/18 23/52/18
f 10/53/19 25/44/19 11/54/19
f 9/25/20 26/55/20 27/39/20
f 9/56/21 28/36/21 10/22/21
f 12/57/22 25/58/22 26/16/22
f 2/1/1 4/59/1 3/2/1
f 4/4/2 8/60/2 7/5/2
f 8/7/3 6/61/3 5/8/3
f 6/10/4 2/62/4 1/11/4
f 14/13/23 13/30/23 10/14/23
f 26/16/24 25/58/24 19/17/24
f 15/19/25 14/13/25 11/15/25
f 16/21/26 9/56/26 10/22/26
f 15/24/27 12/63/27 9/25/27
f 6/27/10 15/19/10 16/28/10
f 2/29/10 16/28/10 13/30/10
f 8/32/10 14/13/10 15/19/10
f 4/31/10 13/30/10 14/13/10
f 19/33/28 23/46/28 24/34/28
f 28/36/29 27/64/29 17/37/29
f 27/39/30 26/55/30 20/40/30
f 28/42/31 18/65/31 19/43/31
f 22/45/15 21/49/15 24/34/15
f 18/38/32 17/37/32 21/47/32
f 20/35/33 24/34/33 21/49/33
f 19/43/34 18/65/34 22/51/34
f 10/53/35 28/42/35 25/44/35
f 9/25/36 12/63/36 26/55/36
f 9/56/37 27/64/37 28/36/37
f 12/57/38 11/66/38 25/58/38
