# Blender 4.3.2
# www.blender.org
o Tree02
v -0.147754 0.147754 0.000000
v -0.142009 0.142009 1.929126
v 0.147754 0.147754 0.000000
v 0.142009 0.142009 1.929126
v -0.147754 -0.147754 0.000000
v -0.142009 -0.142009 1.929126
v 0.147754 -0.147754 0.000000
v 0.142009 -0.142009 1.929126
v -0.591130 0.591130 2.313479
v 0.777300 0.591130 2.344943
v 0.775075 -0.930641 2.333235
v -0.591130 -0.930641 2.301561
v 0.410660 0.410660 1.929126
v 0.410660 -0.410660 1.929126
v -0.410660 -0.410660 1.929126
v -0.410660 0.410660 1.929126
v -0.770039 0.591130 4.139784
v 0.591130 0.591130 4.139784
v 0.591130 -0.817123 4.139784
v -0.770039 -0.817123 4.139784
v -0.409593 0.409593 4.357237
v 0.409593 0.409593 4.357237
v 0.409593 -0.409593 4.357237
v -0.409593 -0.409593 4.357237
v 1.196670 -1.018990 3.206876
v -1.021127 -1.018990 3.238549
v -1.021127 0.842217 3.226632
v 1.194446 0.842217 3.195168
vn -0.7071 0.7071 0.0042
vn -0.3025 0.3025 -0.9039
vn 0.7071 0.7071 0.0042
vn 0.3025 0.3025 -0.9039
vn -0.7071 -0.7071 0.0042
vn -0.3025 -0.3025 -0.9039
vn 0.7071 -0.7071 0.0042
vn 0.3025 -0.3025 -0.9039
vn -0.5813 0.6465 -0.4941
vn 0.5685 0.6032 -0.5594
vn 0.5154 -0.6485 -0.5602
vn -0.5114 -0.6674 -0.5413
vn 0.3182 0.4567 -0.8308
vn 0.3370 -0.2355 -0.9116
vn -0.4625 -0.2216 -0.8585
vn -0.4341 0.4341 -0.7894
vn -0.5818 0.5604 0.5894
vn 0.4972 0.6156 0.6115
vn 0.4456 -0.6088 0.6563
vn -0.5491 -0.5716 0.6098
vn -0.1925 0.3579 0.9137
vn 0.3353 0.3353 0.8804
vn 0.3629 -0.1708 0.9161
vn -0.2094 -0.1822 0.9607
vn 0.7647 -0.6412 0.0646
vn -0.7405 -0.6717 -0.0221
vn -0.7198 0.6922 -0.0520
vn 0.7450 0.6665 0.0269
vt 0.346977 0.132126
vt 0.152691 0.177155
vt 0.150324 0.146848
vt 0.351714 0.192764
vt 0.173658 0.236502
vt 0.171290 0.206195
vt 0.344606 0.101776
vt 0.149215 0.146935
vt 0.146848 0.116627
vt 0.349344 0.162429
vt 0.162423 0.206887
vt 0.160055 0.176580
vt 0.716386 0.653386
vt 0.646289 0.845787
vt 0.646289 0.553675
vt 0.738554 0.517637
vt 0.564123 0.827138
vt 0.564123 0.565855
vt 0.908538 0.553292
vt 0.874042 0.653155
vt 0.712309 0.950264
vt 0.569425 0.800157
vt 0.810825 0.903897
vt 0.693326 0.934640
vt 0.885615 0.853999
vt 0.850982 0.934640
vt 0.822549 0.704799
vt 0.874273 0.810812
vt 0.822629 0.759318
vt 0.716617 0.811042
vt 0.768110 0.759398
vt 0.768030 0.704879
vt 0.887156 0.630310
vt 0.713285 0.708537
vt 0.635438 0.630310
vt 0.568922 0.602564
vt 0.920765 0.577604
vt 0.953222 0.784824
vt 0.576525 0.660150
vt 0.885666 0.508464
vt 0.933792 0.662340
vt 0.913770 0.792944
vt 0.603327 0.583807
vt 0.873642 0.582077
vt 0.864775 0.865784
vt 0.864775 0.708537
vt 0.761799 0.463509
vt 0.904814 0.528879
vt 0.635438 0.900631
vt 0.713285 0.865784
vt 0.795069 0.530161
vt 0.605333 0.912250
vt 0.897449 0.912250
vt 0.911499 0.862442
vt 0.917573 0.600193
vt 0.349253 0.161255
vt 0.353990 0.221894
vt 0.346882 0.130905
vt 0.351620 0.191558
vt 0.744629 0.943354
vt 0.568922 0.884724
vt 0.593504 0.856189
vt 0.683130 0.468984
vt 0.615345 0.508464
vt 0.556520 0.797100
vt 0.637825 0.531167
s 1
f 2/1/2 3/2/3 1/3/1
f 4/4/4 7/5/7 3/6/3
f 8/7/8 5/8/5 7/9/7
f 6/10/6 1/11/1 5/12/5
f 14/13/14 10/14/10 11/15/11
f 26/16/26 19/17/19 20/18/20
f 14/13/14 12/19/12 15/20/15
f 13/21/13 9/22/9 10/23/10
f 15/24/15 9/25/9 16/26/16
f 6/27/6 16/28/16 2/29/2
f 2/29/2 13/30/13 4/31/4
f 8/32/8 15/20/15 6/27/6
f 4/31/4 14/13/14 8/32/8
f 19/33/19 24/34/24 20/35/20
f 27/36/27 18/37/18 28/38/28
f 26/39/26 17/40/17 27/41/27
f 25/42/25 18/43/18 19/44/19
f 22/45/22 24/34/24 23/46/23
f 18/37/18 21/47/21 22/48/22
f 17/49/17 24/34/24 21/50/21
f 18/43/18 23/51/23 19/44/19
f 10/52/10 25/42/25 11/53/11
f 9/25/9 26/39/26 27/41/27
f 10/23/10 27/36/27 28/38/28
f 11/54/11 26/16/26 12/55/12
f 2/1/2 4/56/4 3/2/3
f 4/4/4 8/57/8 7/5/7
f 8/7/8 6/58/6 5/8/5
f 6/10/6 2/59/2 1/11/1
f 14/13/14 13/30/13 10/14/10
f 26/16/26 25/60/25 19/17/19
f 14/13/14 11/15/11 12/19/12
f 13/21/13 16/61/16 9/22/9
f 15/24/15 12/62/12 9/25/9
f 6/27/6 15/20/15 16/28/16
f 2/29/2 16/28/16 13/30/13
f 8/32/8 14/13/14 15/20/15
f 4/31/4 13/30/13 14/13/14
f 19/33/19 23/46/23 24/34/24
f 27/36/27 17/63/17 18/37/18
f 26/39/26 20/64/20 17/40/17
f 25/42/25 28/65/28 18/43/18
f 22/45/22 21/50/21 24/34/24
f 18/37/18 17/63/17 21/47/21
f 17/49/17 20/35/20 24/34/24
f 18/43/18 22/66/22 23/51/23
f 10/52/10 28/65/28 25/42/25
f 9/25/9 12/62/12 26/39/26
f 10/23/10 9/22/9 27/36/27
f 11/54/11 25/60/25 26/16/26
