# Blender 4.3.2
# www.blender.org
o Machine_Panels
v -12.668245 -1.639790 1.357098
v -12.668245 1.455232 8.557967
v 18.861038 -1.639790 1.357098
v 18.861038 1.455232 8.557967
v -12.668245 -3.270856 2.058125
v -12.668245 -0.175835 9.259027
v 18.861038 -3.270856 2.058125
v 18.861038 -0.175835 9.259027
v 18.861038 -3.315880 2.171021
v -12.668245 -3.315880 2.171021
v -12.668245 -0.288697 9.214004
v 18.861038 -0.288697 9.214004
v 18.425224 -3.008160 2.511855
v -12.232430 -3.008160 2.511855
v 18.425224 -0.324260 8.756214
v 2.705975 -1.639790 1.357098
v 3.486818 -1.639790 1.357098
v 3.486818 1.455232 8.557967
v 2.705975 1.455232 8.557967
v 3.486818 -3.270856 2.058125
v 2.705975 -3.270856 2.058125
v 2.705975 -3.315880 2.171021
v 3.486818 -3.315880 2.171021
v 3.486818 -0.175835 9.259027
v 2.705975 -0.175835 9.259027
v 3.486818 -0.288697 9.214004
v 2.705975 -0.288697 9.214004
v 3.486818 -3.008160 2.511855
v 2.705975 -0.324260 8.756214
v -12.380788 -3.202682 2.434388
v -12.232430 -0.324260 8.756214
v -12.380788 -0.401895 8.950637
v 18.573616 -3.202682 2.434388
v 18.573616 -0.401895 8.950637
v 2.705975 -3.008160 2.511855
v 2.854098 -3.202682 2.434388
v 3.338728 -3.202682 2.434388
v 2.854098 -0.401895 8.950637
v 3.486818 -0.324260 8.756214
v 3.338728 -0.401895 8.950637
v -12.688710 2.574461 17.398762
v -12.688710 2.581909 25.686819
v 18.881536 2.574461 17.398762
v 18.881536 2.581909 25.686819
v -12.688710 0.072335 17.398762
v -12.688710 0.143026 25.686819
v 18.881536 0.072335 17.398762
v 18.881536 0.143026 25.686819
v 18.881536 -0.013586 17.484682
v -12.688710 -0.013586 17.484682
v -12.688710 0.057104 25.600897
v 18.881536 0.057104 25.600897
v 18.429283 0.295644 17.930630
v -12.236490 0.295644 17.930630
v -12.236490 0.353116 25.146059
v 18.429283 0.353116 25.146059
v -12.236490 0.102094 17.933481
v -12.345997 -0.008587 17.826021
v -12.345997 0.052105 25.259558
v -12.236490 0.159566 25.148911
v 18.538790 -0.008587 17.826021
v 18.429283 0.102094 17.933481
v 18.429283 0.159566 25.148911
v 18.538790 0.052105 25.259558
v 3.348290 2.574461 17.398762
v 2.844537 2.574461 17.398762
v 2.844537 2.581909 25.686819
v 3.348290 2.581909 25.686819
v 3.348290 0.072335 17.398762
v 2.844537 0.072335 17.398762
v 2.844537 -0.013586 17.484682
v 3.348290 -0.013586 17.484682
v 3.348290 0.143026 25.686819
v 2.844537 0.143026 25.686819
v 3.348290 0.057104 25.600897
v 2.844537 0.057104 25.600897
v 3.348290 0.295644 17.930630
v 2.844537 0.295644 17.930630
v 3.348290 0.353116 25.146059
v 2.844537 0.353116 25.146059
v 3.348290 0.102094 17.933481
v 2.844537 0.102094 17.933481
v 3.348290 -0.008587 17.826021
v 2.844537 -0.008587 17.826021
v 2.844537 0.159566 25.148911
v 3.348290 0.159566 25.148911
v 3.348290 0.052105 25.259558
v 2.844537 0.052105 25.259558
v -12.668245 -1.951402 0.549079
v 18.861038 -1.951402 0.549079
v -12.668245 -8.579843 -4.927488
v 18.861038 -8.579843 -4.927488
v -12.668245 -3.294744 2.038364
v 18.861038 -3.294744 2.038364
v -12.668245 -10.325080 -3.593775
v 18.861038 -10.325080 -3.593775
v -12.668245 -3.415524 2.051683
v 18.861038 -3.415524 2.051683
v 18.861038 -10.311727 -3.472961
v -12.668245 -10.311727 -3.472961
v 18.425224 -9.879937 -3.316819
v -12.380721 -3.639302 1.872426
v -12.232430 -3.662116 1.664349
v 18.425224 -3.662116 1.664349
v 18.573547 -3.639302 1.872426
v -12.232430 -9.879937 -3.316819
v -12.380721 -10.087948 -3.293703
v 18.573547 -10.087948 -3.293703
v -12.688710 2.574460 9.159284
v -12.688710 2.581909 17.403023
v 18.881536 2.574460 9.159284
v 18.881536 2.581909 17.403023
v -12.688710 0.072334 9.159284
v -12.688710 0.143025 17.403023
v 18.881536 0.072334 9.159284
v 18.881536 0.143025 17.403023
v 18.881536 -0.013587 9.245206
v -12.688710 -0.013587 9.245206
v -12.688710 0.057103 17.317101
v 18.881536 0.057103 17.317101
v 18.429283 0.295643 9.691153
v -12.236490 0.295643 9.691153
v -12.236490 0.353115 16.862265
v 18.429283 0.353115 16.862265
v -12.236490 0.102093 9.694004
v -12.345997 -0.008588 9.586543
v -12.345997 0.052104 16.975763
v -12.236490 0.159565 16.865116
v 18.538790 -0.008588 9.586543
v 18.429283 0.102093 9.694004
v 18.429283 0.159565 16.865116
v 18.538790 0.052104 16.975763
vn -0.0000 -0.9187 0.3949
vn -0.0000 0.3949 0.9187
vn -0.0000 -0.9289 -0.3704
vn -0.0000 -0.3705 0.9288
vn -0.0000 -0.3949 -0.9187
vn 0.7065 -0.6502 0.2795
vn 0.7065 -0.6502 0.2794
vn -0.7064 -0.6503 0.2795
vn -0.7065 -0.6502 0.2795
vn -0.7071 -0.6496 0.2792
vn -0.7071 -0.6497 0.2792
vn 0.7072 -0.6496 0.2792
vn 0.7071 -0.6496 0.2792
vn -0.0000 -0.3700 0.9290
vn -0.0000 -0.9287 -0.3708
vn -0.0000 -0.9999 0.0116
vn -0.0000 -0.7071 -0.7071
vn -0.0000 -0.7071 0.7071
vn 1.0000 -0.0000 -0.0000
vn -1.0000 -0.0000 -0.0000
vn -0.0000 -0.6966 0.7175
vn -0.0000 -0.0147 -0.9999
vn -0.0000 -0.9999 0.0146
vn -0.0000 -1.0000 0.0080
vn -0.0000 -0.7174 -0.6967
vn 0.7057 -0.7085 0.0057
vn -0.7057 -0.7085 0.0057
vn -0.0000 -0.0000 -1.0000
vn -0.0000 -0.0000 1.0000
vn -0.0000 0.0147 0.9999
vn -0.0000 -0.6072 -0.7946
vn -0.0000 -0.6252 0.7804
vn -0.0000 -0.6252 0.7805
vn -0.0000 0.7426 0.6698
vn -0.0000 0.1096 0.9940
vn -0.0000 -0.9939 0.1099
vn -0.0000 -0.9940 0.1090
vn -0.0000 0.1104 0.9939
vn 0.7067 -0.4423 0.5522
vn 0.7066 -0.4424 0.5522
vn -0.7066 -0.4424 0.5522
vn -0.7066 -0.4424 0.5523
vn 0.0001 -0.9999 0.0116
vn 0.7057 -0.7085 0.0058
vn -0.7057 -0.7085 0.0058
vn -0.7056 -0.7085 0.0058
vt 0.645301 0.104423
vt 0.444036 0.012851
vt 0.645301 0.012851
vt 0.209983 0.514846
vt 0.002846 0.538766
vt 0.002846 0.514846
vt 0.846675 0.216303
vt 0.658984 0.217787
vt 0.658984 0.216303
vt 0.649451 0.216303
vt 0.461759 0.217787
vt 0.461759 0.216303
vt 0.220209 0.227786
vt 0.415078 0.226246
vt 0.415078 0.227786
vt 0.641024 0.512851
vt 0.433887 0.536770
vt 0.433887 0.512851
vt 0.423769 0.344275
vt 0.220504 0.348137
vt 0.218509 0.344275
vt 0.006720 0.248715
vt 0.209984 0.244853
vt 0.211980 0.248715
vt 0.412991 0.446421
vt 0.211726 0.354849
vt 0.412991 0.354849
vt 0.218509 0.248715
vt 0.423769 0.248716
vt 0.427641 0.348137
vt 0.220504 0.244853
vt 0.427641 0.244853
vt 0.006720 0.344275
vt 0.002847 0.244853
vt 0.015443 0.227787
vt 0.210312 0.226246
vt 0.210312 0.227786
vt 0.209984 0.348137
vt 0.002847 0.348137
vt 0.427641 0.514846
vt 0.220504 0.538766
vt 0.220504 0.514846
vt 0.858681 0.512851
vt 0.651544 0.536770
vt 0.651544 0.512851
vt 0.211979 0.344275
vt 0.253674 0.106889
vt 0.250849 0.013323
vt 0.253674 0.015317
vt 0.233810 0.013330
vt 0.236634 0.106896
vt 0.233810 0.108890
vt 0.245152 0.106897
vt 0.242330 0.013331
vt 0.245152 0.015325
vt 0.855128 0.003322
vt 0.857950 0.096888
vt 0.855128 0.098882
vt 0.015102 0.153670
vt 0.218363 0.150850
vt 0.216367 0.153670
vt 0.216357 0.143673
vt 0.013096 0.140852
vt 0.218356 0.140852
vt 0.446761 0.139676
vt 0.650022 0.136855
vt 0.648026 0.139676
vt 0.648015 0.149670
vt 0.444754 0.146849
vt 0.650014 0.146849
vt 0.855240 0.129454
vt 0.859858 0.234208
vt 0.855241 0.229609
vt 0.015441 0.220259
vt 0.212326 0.218719
vt 0.212326 0.220259
vt 0.218711 0.220259
vt 0.415596 0.218719
vt 0.415596 0.220259
vt 0.657541 0.210532
vt 0.847174 0.209048
vt 0.847174 0.210532
vt 0.278594 0.110087
vt 0.275986 0.012888
vt 0.278594 0.012870
vt 0.259370 0.110087
vt 0.261978 0.012888
vt 0.261978 0.110104
vt 0.829544 0.194554
vt 0.645432 0.196437
vt 0.645432 0.194554
vt 0.013165 0.173457
vt 0.216351 0.170849
vt 0.216351 0.173457
vt 0.439130 0.129453
vt 0.434512 0.234208
vt 0.434512 0.124854
vt 0.650579 0.124854
vt 0.859858 0.124854
vt 0.002847 0.354848
vt 0.206033 0.452064
vt 0.002847 0.452064
vt 0.455170 0.194554
vt 0.639282 0.196437
vt 0.453833 0.196437
vt 0.017284 0.203668
vt 0.208437 0.205623
vt 0.015896 0.205623
vt 0.652408 0.032926
vt 0.751085 0.030850
vt 0.749625 0.032939
vt 0.751154 0.024938
vt 0.652478 0.022863
vt 0.749695 0.022849
vt 0.439130 0.229608
vt 0.643792 0.234208
vt 0.418685 0.428557
vt 0.627965 0.394846
vt 0.627965 0.428557
vt 0.218915 0.507707
vt 0.428194 0.474848
vt 0.428194 0.507707
vt 0.461758 0.210532
vt 0.651391 0.209048
vt 0.651391 0.210532
vt 0.405974 0.203668
vt 0.214822 0.205623
vt 0.214822 0.203668
vt 0.215617 0.110067
vt 0.012431 0.012851
vt 0.215617 0.012851
vt 0.216360 0.160853
vt 0.013174 0.163461
vt 0.013174 0.160853
vt 0.648017 0.156848
vt 0.444831 0.159456
vt 0.444831 0.156848
vt 0.444825 0.169457
vt 0.648011 0.166849
vt 0.648011 0.169457
vt 0.643792 0.124854
vt 0.643792 0.129453
vt 0.650579 0.234208
vt 0.650579 0.229609
vt 0.002848 0.507706
vt 0.212128 0.474848
vt 0.212128 0.507707
vt 0.643792 0.229609
vt 0.208437 0.203668
vt 0.639282 0.194554
vt 0.650579 0.129453
vt 0.634752 0.428557
vt 0.844031 0.394846
vt 0.844031 0.428557
vt 0.267677 0.110087
vt 0.270286 0.012888
vt 0.270286 0.110104
vt 0.221323 0.110067
vt 0.228110 0.012851
vt 0.228110 0.110067
vt 0.381528 0.012846
vt 0.284329 0.015454
vt 0.284311 0.012846
vt 0.859848 0.474852
vt 0.433888 0.504526
vt 0.433888 0.474852
vt 0.006733 0.006722
vt 0.002848 0.122227
vt 0.002848 0.002849
vt 0.967881 0.002851
vt 0.994977 0.428812
vt 0.967881 0.428812
vt 0.994977 0.002851
vt 0.996618 0.428812
vt 0.859848 0.504526
vt 0.433888 0.506168
vt 0.433891 0.240845
vt 0.848076 0.348480
vt 0.433891 0.348480
vt 0.424925 0.118353
vt 0.006732 0.118353
vt 0.424925 0.006722
vt 0.428809 0.122227
vt 0.428809 0.002849
vt 0.845580 0.114857
vt 0.434532 0.117712
vt 0.437453 0.114780
vt 0.438372 0.005704
vt 0.849419 0.002848
vt 0.846499 0.005781
vt 0.435406 0.002848
vt 0.848545 0.117712
vt 0.423577 0.133452
vt 0.428195 0.237610
vt 0.423577 0.233011
vt 0.418695 0.467706
vt 0.844041 0.434847
vt 0.844041 0.467706
vt 0.415599 0.211190
vt 0.015444 0.212730
vt 0.015444 0.211190
vt 0.839250 0.201804
vt 0.453833 0.203287
vt 0.453833 0.201804
vt 0.418694 0.388559
vt 0.844041 0.354848
vt 0.844041 0.388559
vt 0.284315 0.025456
vt 0.380917 0.022848
vt 0.380934 0.025456
vt 0.747640 0.015460
vt 0.651037 0.012852
vt 0.747657 0.012852
vt 0.461261 0.180608
vt 0.835635 0.178245
vt 0.835635 0.180608
vt 0.865562 0.416014
vt 0.962182 0.002854
vt 0.962182 0.416014
vt 0.007466 0.133452
vt 0.002848 0.237610
vt 0.002849 0.128853
vt 0.428195 0.128853
vt 0.404134 0.181084
vt 0.015443 0.183537
vt 0.015443 0.181084
vt 0.405970 0.196140
vt 0.015891 0.198095
vt 0.017279 0.196140
vt 0.823860 0.187303
vt 0.448149 0.189186
vt 0.449486 0.187303
vt 0.285695 0.034929
vt 0.383775 0.032853
vt 0.382315 0.034942
vt 0.750552 0.040944
vt 0.652472 0.038869
vt 0.749092 0.038855
vt 0.007466 0.233011
vt 0.444036 0.104423
vt 0.209983 0.538766
vt 0.846675 0.217787
vt 0.649451 0.217787
vt 0.220209 0.226246
vt 0.641024 0.536770
vt 0.211726 0.446421
vt 0.015443 0.226246
vt 0.427641 0.538766
vt 0.858681 0.536770
vt 0.250849 0.108883
vt 0.236634 0.015324
vt 0.242330 0.108891
vt 0.857950 0.005316
vt 0.013103 0.150850
vt 0.015091 0.143673
vt 0.444762 0.136855
vt 0.446750 0.149670
vt 0.015441 0.218719
vt 0.218711 0.218719
vt 0.657541 0.209048
vt 0.275986 0.110104
vt 0.259370 0.012870
vt 0.830881 0.196437
vt 0.013165 0.170849
vt 0.206033 0.354848
vt 0.650929 0.030850
vt 0.650999 0.024938
vt 0.418685 0.394846
vt 0.218915 0.474848
vt 0.461758 0.209048
vt 0.407362 0.205623
vt 0.012431 0.110067
vt 0.216360 0.163461
vt 0.648017 0.159456
vt 0.444825 0.166849
vt 0.002848 0.474848
vt 0.634752 0.394846
vt 0.267678 0.012870
vt 0.221323 0.012851
vt 0.381545 0.015454
vt 0.996619 0.002851
vt 0.859848 0.506168
vt 0.848076 0.240845
vt 0.418695 0.434847
vt 0.415599 0.212730
vt 0.839250 0.203288
vt 0.418694 0.354848
vt 0.284297 0.022848
vt 0.651020 0.015460
vt 0.461261 0.178245
vt 0.865562 0.002854
vt 0.404134 0.183537
vt 0.407358 0.198095
vt 0.825197 0.189186
vt 0.284216 0.032853
vt 0.650993 0.040944
s 1
f 29/1/1 14/2/1 35/3/1
f 18/4/2 8/5/2 4/6/2
f 7/7/3 23/8/3 20/9/3
f 21/10/3 10/11/3 5/12/3
f 24/13/4 12/14/4 8/15/4
f 16/16/5 5/17/5 1/18/5
f 34/19/1 26/20/1 40/21/1
f 30/22/1 22/23/1 36/24/1
f 15/25/1 28/26/1 13/27/1
f 22/23/1 37/28/1 36/24/1
f 33/29/1 12/30/1 34/19/1
f 33/29/1 23/31/1 9/32/1
f 32/33/1 10/34/1 30/22/1
f 6/35/4 27/36/4 25/37/4
f 32/33/1 27/38/1 11/39/1
f 2/40/2 25/41/2 19/42/2
f 3/43/5 20/44/5 17/45/5
f 38/46/1 37/28/1 40/21/1
f 20/44/5 16/16/5 17/45/5
f 27/36/4 24/13/4 25/37/4
f 23/8/3 21/10/3 20/9/3
f 25/41/2 18/4/2 19/42/2
f 26/20/1 38/46/1 40/21/1
f 31/47/6 30/48/7 14/49/7
f 34/50/8 13/51/9 33/52/9
f 35/53/10 38/54/11 29/55/11
f 37/56/12 39/57/13 40/58/13
f 14/59/14 36/60/14 35/61/14
f 13/62/14 37/63/14 33/64/14
f 15/65/15 40/66/15 39/67/15
f 31/68/15 38/69/15 32/70/15
f 59/71/16 50/72/16 58/73/16
f 47/74/17 72/75/17 69/76/17
f 70/77/17 50/78/17 45/79/17
f 73/80/18 52/81/18 48/82/18
f 57/83/19 55/84/19 60/85/19
f 62/86/20 56/87/20 53/88/20
f 57/89/21 84/90/21 82/91/21
f 86/92/22 56/93/22 63/94/22
f 64/95/16 49/96/16 52/97/16
f 59/71/16 76/98/23 51/99/16
f 80/100/24 54/101/24 78/102/24
f 62/103/21 83/104/21 61/105/21
f 60/106/25 88/107/25 59/108/25
f 60/109/26 58/110/26 57/111/26
f 61/112/27 63/113/27 62/114/27
f 61/115/16 72/116/23 49/96/16
f 43/117/28 69/118/28 65/119/28
f 68/120/29 48/121/29 44/122/29
f 46/123/18 76/124/18 74/125/18
f 63/126/25 87/127/25 86/128/25
f 56/129/24 77/130/24 53/131/24
f 82/132/30 54/133/30 57/134/30
f 62/135/30 77/136/30 81/137/30
f 60/138/22 80/139/22 85/140/22
f 64/95/16 75/141/23 87/142/23
f 58/73/16 71/143/23 84/144/23
f 42/145/29 74/146/29 67/147/29
f 71/143/23 83/148/23 84/144/23
f 87/127/25 85/149/25 86/128/25
f 84/90/21 81/150/21 82/91/21
f 75/141/23 88/151/23 87/142/23
f 69/118/28 66/152/28 65/119/28
f 76/124/18 73/80/18 74/125/18
f 72/75/17 70/77/17 69/76/17
f 74/146/29 68/120/29 67/147/29
f 66/152/28 45/153/28 41/154/28
f 82/155/20 80/156/20 78/157/20
f 81/158/24 85/159/24 82/160/24
f 81/161/19 79/162/19 86/163/19
f 92/164/31 95/165/31 91/166/31
f 107/167/32 97/168/33 100/169/32
f 89/170/34 94/171/34 90/172/34
f 93/173/35 98/174/35 94/171/35
f 96/175/36 100/176/36 95/165/36
f 106/177/32 104/178/32 103/179/32
f 105/180/33 97/168/33 102/181/33
f 108/182/32 98/183/33 105/180/33
f 107/167/33 99/184/33 108/182/33
f 104/185/37 102/186/37 103/187/37
f 106/188/38 108/189/38 101/190/38
f 103/187/39 107/191/40 106/188/40
f 105/192/41 101/190/42 108/189/42
f 127/193/16 118/194/16 126/195/43
f 110/196/29 116/197/29 112/198/29
f 115/199/17 118/200/17 113/201/17
f 114/202/18 120/203/18 116/204/18
f 111/205/28 113/206/28 109/207/28
f 125/208/19 123/209/19 128/210/19
f 130/211/20 124/212/20 121/213/20
f 128/214/22 124/215/22 131/216/22
f 124/217/24 122/218/24 121/219/24
f 132/220/16 117/221/16 120/222/16
f 132/220/16 119/223/16 127/193/16
f 130/224/30 122/225/30 125/226/30
f 125/227/21 129/228/21 130/229/21
f 131/230/25 127/231/25 128/232/25
f 128/233/44 126/234/44 125/235/44
f 129/236/45 131/237/45 130/238/45
f 126/195/43 117/221/16 129/239/16
f 29/1/1 31/240/1 14/2/1
f 18/4/2 24/241/2 8/5/2
f 7/7/3 9/242/3 23/8/3
f 21/10/3 22/243/3 10/11/3
f 24/13/4 26/244/4 12/14/4
f 16/16/5 21/245/5 5/17/5
f 34/19/1 12/30/1 26/20/1
f 30/22/1 10/34/1 22/23/1
f 15/25/1 39/246/1 28/26/1
f 22/23/1 23/31/1 37/28/1
f 33/29/1 9/32/1 12/30/1
f 33/29/1 37/28/1 23/31/1
f 32/33/1 11/39/1 10/34/1
f 6/35/4 11/247/4 27/36/4
f 32/33/1 38/46/1 27/38/1
f 2/40/2 6/248/2 25/41/2
f 3/43/5 7/249/5 20/44/5
f 38/46/1 36/24/1 37/28/1
f 20/44/5 21/245/5 16/16/5
f 27/36/4 26/244/4 24/13/4
f 23/8/3 22/243/3 21/10/3
f 25/41/2 24/241/2 18/4/2
f 26/20/1 27/38/1 38/46/1
f 31/47/6 32/250/6 30/48/7
f 34/50/8 15/251/8 13/51/9
f 35/53/10 36/252/10 38/54/11
f 37/56/12 28/253/12 39/57/13
f 14/59/14 30/254/14 36/60/14
f 13/62/14 28/255/14 37/63/14
f 15/65/15 34/256/15 40/66/15
f 31/68/15 29/257/15 38/69/15
f 59/71/16 51/99/16 50/72/16
f 47/74/17 49/258/17 72/75/17
f 70/77/17 71/259/17 50/78/17
f 73/80/18 75/260/18 52/81/18
f 57/83/19 54/261/19 55/84/19
f 62/86/20 63/262/20 56/87/20
f 57/89/21 58/263/21 84/90/21
f 86/92/22 79/264/22 56/93/22
f 64/95/16 61/115/16 49/96/16
f 59/71/16 88/151/23 76/98/23
f 80/100/24 55/265/24 54/101/24
f 62/103/21 81/150/21 83/104/21
f 60/106/25 85/149/25 88/107/25
f 60/109/26 59/266/26 58/110/26
f 61/112/27 64/267/27 63/113/27
f 61/115/16 83/148/23 72/116/23
f 43/117/28 47/268/28 69/118/28
f 68/120/29 73/269/29 48/121/29
f 46/123/18 51/270/18 76/124/18
f 63/126/25 64/271/25 87/127/25
f 56/129/24 79/272/24 77/130/24
f 82/132/30 78/273/30 54/133/30
f 62/135/30 53/274/30 77/136/30
f 60/138/22 55/275/22 80/139/22
f 64/95/16 52/97/16 75/141/23
f 58/73/16 50/72/16 71/143/23
f 42/145/29 46/276/29 74/146/29
f 71/143/23 72/116/23 83/148/23
f 87/127/25 88/107/25 85/149/25
f 84/90/21 83/104/21 81/150/21
f 75/141/23 76/98/23 88/151/23
f 69/118/28 70/277/28 66/152/28
f 76/124/18 75/260/18 73/80/18
f 72/75/17 71/259/17 70/77/17
f 74/146/29 73/269/29 68/120/29
f 66/152/28 70/277/28 45/153/28
f 82/155/20 85/278/20 80/156/20
f 81/158/24 86/279/24 85/159/24
f 81/161/19 77/280/19 79/162/19
f 92/164/31 96/175/31 95/165/31
f 107/167/32 102/181/33 97/168/33
f 89/170/34 93/173/34 94/171/34
f 93/173/35 97/281/35 98/174/35
f 96/175/36 99/282/36 100/176/36
f 106/177/32 101/283/32 104/178/32
f 105/180/33 98/183/33 97/168/33
f 108/182/33 99/184/33 98/183/32
f 107/167/33 100/169/33 99/184/33
f 104/185/37 105/192/37 102/186/37
f 106/188/38 107/191/38 108/189/38
f 103/187/39 102/186/39 107/191/40
f 105/192/41 104/185/41 101/190/42
f 127/193/16 119/223/16 118/194/16
f 110/196/29 114/284/29 116/197/29
f 115/199/17 117/285/17 118/200/17
f 114/202/18 119/286/18 120/203/18
f 111/205/28 115/287/28 113/206/28
f 125/208/19 122/288/19 123/209/19
f 130/211/20 131/289/20 124/212/20
f 128/214/22 123/290/22 124/215/22
f 124/217/24 123/291/24 122/218/24
f 132/220/16 129/239/16 117/221/16
f 132/220/16 120/222/16 119/223/16
f 130/224/30 121/292/30 122/225/30
f 125/227/21 126/293/21 129/228/21
f 131/230/25 132/294/25 127/231/25
f 128/233/44 127/295/44 126/234/44
f 129/236/45 132/296/46 131/237/45
f 126/195/43 118/194/16 117/221/16
