# Blender 4.3.2
# www.blender.org
o Tile1101
v 1.000000 -1.000000 0.000000
v -1.000000 -1.000000 0.350000
v 1.000000 1.000000 0.350000
v -1.000000 1.000000 0.350000
v 1.000000 0.000000 0.350000
v -1.000000 0.000000 0.350000
v 0.000000 1.000000 0.350000
v 0.000000 -1.000000 0.350000
v 0.154887 -0.211898 0.350000
v 0.000000 -1.000000 0.000000
v 1.000000 0.000000 0.000000
v 0.154887 -0.211898 0.000000
vn -0.0000 -0.0000 1.0000
vn 0.9812 -0.1928 -0.0000
vn 0.2432 -0.9700 -0.0000
vt 0.888716 0.438513
vt 0.606873 0.368437
vt 0.888058 0.105180
vt 0.778412 0.595317
vt 0.778412 0.964436
vt 0.466465 0.517101
vt 0.554725 0.105839
vt 0.943394 0.805298
vt 0.826728 0.805298
vt 0.826728 0.537572
vt 0.943394 0.928929
vt 0.826728 0.928929
vt 0.409293 0.964436
vt 0.040174 0.964436
vt 0.040174 0.595317
vt 0.040174 0.226197
vt 0.409293 0.226197
vt 0.943394 0.537572
s 0
f 11/1/1 12/2/1 1/3/1
f 5/4/1 3/5/1 9/6/1
f 10/7/1 1/3/1 12/2/1
f 12/8/2 9/9/2 8/10/2
f 12/8/3 11/11/3 5/12/3
f 7/13/1 9/6/1 3/5/1
f 4/14/1 9/6/1 7/13/1
f 4/14/1 6/15/1 9/6/1
f 6/15/1 2/16/1 9/6/1
f 2/16/1 8/17/1 9/6/1
f 5/12/3 9/9/3 12/8/3
f 8/10/2 10/18/2 12/8/2
