# Blender 4.3.2
# www.blender.org
o Tile3111
v -5.000000 5.000000 4.250000
v -5.000000 -5.000000 0.000000
v 5.000000 5.000000 0.000000
v 5.000000 -5.000000 0.000000
v -5.000000 0.000000 4.250000
v 0.000000 5.000000 4.250000
v -0.806310 0.994635 4.250000
v -5.000000 0.000000 0.000000
v 0.000000 5.000000 0.000000
v -0.806310 0.994635 0.000000
vn -0.0000 -0.0000 1.0000
vn 0.2308 -0.9730 -0.0000
vn 0.9803 -0.1973 -0.0000
vt 0.573157 0.448990
vt 0.573157 0.115657
vt 0.852736 0.181966
vt 0.834000 0.822263
vt 0.950667 0.822263
vt 0.834000 0.942443
vt 0.834000 0.549882
vt 0.728186 0.922588
vt 0.448607 0.522946
vt 0.728186 0.589255
vt 0.061520 0.255921
vt 0.394853 0.255921
vt 0.061519 0.922588
vt 0.906490 0.448990
vt 0.950667 0.942443
vt 0.950667 0.549882
s 0
f 1/1/1 5/2/1 7/3/1
f 10/4/2 7/5/2 8/6/2
f 10/4/3 9/7/3 7/5/3
f 2/8/1 10/9/1 8/10/1
f 3/11/1 9/12/1 10/9/1
f 10/9/1 2/8/1 4/13/1
f 10/9/1 4/13/1 3/11/1
f 7/3/1 6/14/1 1/1/1
f 7/5/2 5/15/2 8/6/2
f 6/16/3 7/5/3 9/7/3
