# Blender 4.3.2
# www.blender.org
o Tile3013
v -1.000000 -1.000000 1.000000
v -1.000000 1.000000 1.000000
v 0.000000 -1.000000 1.000000
v 0.000000 1.000000 1.000000
v 1.000000 -1.000000 0.150000
v 0.000000 -1.000000 0.150000
v 0.000000 0.000000 0.150000
v 1.000000 0.000000 0.150000
v 0.000000 1.000000 0.000000
v 1.000000 1.000000 0.000000
v 0.000000 0.000000 0.000000
v 1.000000 0.000000 0.000000
vn -0.0000 -0.0000 1.0000
vn -0.0000 1.0000 -0.0000
vn 1.0000 -0.0000 -0.0000
vt 0.902230 0.054917
vt 0.638579 0.054917
vt 0.902230 0.582220
vt 0.638579 0.582220
vt 0.254024 0.381985
vt 0.229378 0.217677
vt 0.229378 0.381985
vt 0.123039 0.526402
vt 0.123039 0.859735
vt 0.456372 0.859735
vt 0.456373 0.526402
vt 0.877312 0.734090
vt 0.693589 0.917813
vt 0.877312 0.917813
vt 0.693589 0.734090
vt 0.089716 0.381985
vt 0.089716 0.053368
vt 0.254024 0.217677
vt 0.254024 0.053368
s 0
f 4/1/1 2/2/1 3/3/1
f 3/3/1 2/2/1 1/4/1
f 12/5/2 7/6/2 8/7/2
f 9/8/1 11/9/1 12/10/1
f 10/11/1 9/8/1 12/10/1
f 8/12/1 6/13/1 5/14/1
f 7/15/1 6/13/1 8/12/1
f 3/16/3 6/7/3 7/6/3
f 4/17/3 3/16/3 7/6/3
f 11/18/3 9/19/3 7/6/3
f 9/19/3 4/17/3 7/6/3
f 12/5/2 11/18/2 7/6/2
