# Blender 4.3.2
# www.blender.org
o Tile3100
v -1.000000 1.000000 1.000000
v -1.000000 -1.000000 0.000000
v 1.000000 -1.000000 0.000000
v -1.000000 0.000000 1.000000
v 0.000000 1.000000 1.000000
v -0.161262 0.198927 1.000000
v -1.000000 0.000000 0.000000
v -0.161262 0.198927 0.000000
v 1.000000 0.000000 0.000000
v 0.000000 1.000000 0.150000
v -0.161262 0.198927 0.150000
v 1.000000 1.000000 0.150000
v 1.000000 0.000000 0.150000
vn -0.0000 -0.0000 1.0000
vn 0.2308 -0.9730 -0.0000
vn 0.9803 -0.1973 -0.0000
vn -0.1688 -0.9856 -0.0000
vt 0.573157 0.448990
vt 0.573157 0.115657
vt 0.852736 0.181966
vt 0.834000 0.942443
vt 0.448607 0.522946
vt 0.000000 0.000000
vt 0.061519 0.922588
vt 0.728186 0.922588
vt 0.728186 0.589255
vt 0.950667 0.822263
vt 0.906490 0.448990
vt 0.950667 0.942443
vt 0.061520 0.255921
s 0
f 1/1/1 4/2/1 6/3/1
f 7/4/2 8/5/2 11/6/2
f 9/6/1 8/6/1 3/7/1
f 2/8/1 8/5/1 7/9/1
f 6/10/2 7/4/2 11/6/2
f 8/5/1 2/8/1 3/7/1
f 6/3/1 5/11/1 1/1/1
f 6/10/2 4/12/2 7/4/2
f 11/5/1 13/6/1 12/13/1
f 10/6/1 11/5/1 12/13/1
f 10/6/3 6/10/3 11/5/3
f 6/10/3 10/6/3 5/11/3
f 8/6/4 13/6/4 11/5/4
f 8/6/4 9/6/4 13/6/4
