# Blender 4.3.2
# www.blender.org
o Arrow
v -0.427508 0.427508 1.085945
v -0.116070 0.116070 14.769558
v 0.427508 0.427508 1.085945
v 0.116070 0.116070 14.769558
v -0.427508 -0.427508 1.085945
v -0.116070 -0.116070 14.769558
v 0.427508 -0.427508 1.085945
v 0.116070 -0.116070 14.769558
v 0.983744 0.983744 1.085945
v -0.983744 0.983744 1.085945
v 0.983744 -0.983744 1.085945
v -0.983744 -0.983744 1.085945
v 0.000000 0.000000 -1.062724
vn -0.0000 0.9997 0.0228
vn 0.9997 -0.0000 0.0228
vn -0.0000 -0.9997 0.0228
vn -0.9997 -0.0000 0.0228
vn -0.0000 -0.0000 1.0000
vn -0.0000 -0.9092 -0.4163
vn -0.0000 0.9092 -0.4163
vn -0.9092 -0.0000 -0.4163
vn 0.9092 -0.0000 -0.4163
vt 0.123329 0.122397
vt 0.214821 0.837534
vt 0.123329 0.837534
vt 0.214821 0.122397
vt 0.306313 0.837534
vt 0.306313 0.122397
vt 0.397805 0.837534
vt 0.397805 0.122397
vt 0.489298 0.837534
vt 0.548819 0.810530
vt 0.489298 0.659517
vt 0.548819 0.719037
vt 0.791324 0.751009
vt 0.699832 0.659517
vt 0.791324 0.659517
vt 0.489298 0.204920
vt 0.682984 0.122397
vt 0.682984 0.390957
vt 0.640311 0.719037
vt 0.699832 0.870051
vt 0.640311 0.810530
vt 0.489298 0.870051
vt 0.699832 0.659517
vt 0.489298 0.473480
vt 0.682984 0.390957
vt 0.682984 0.659517
vt 0.682984 0.204920
vt 0.876671 0.122397
vt 0.876671 0.390957
vt 0.682984 0.473480
vt 0.876671 0.390957
vt 0.876671 0.659517
vt 0.489298 0.122397
vt 0.699832 0.751009
s 0
f 2/1/1 3/2/1 1/3/1
f 4/4/2 7/5/2 3/2/2
f 8/6/3 5/7/3 7/5/3
f 6/8/4 1/9/4 5/7/4
f 1/10/5 12/11/5 5/12/5
f 4/13/5 6/14/5 8/15/5
f 11/16/6 12/17/6 13/18/6
f 7/19/5 9/20/5 3/21/5
f 3/21/5 10/22/5 1/10/5
f 5/12/5 11/23/5 7/19/5
f 10/24/7 9/25/7 13/26/7
f 12/27/8 10/28/8 13/29/8
f 9/30/9 11/31/9 13/32/9
f 2/1/1 4/4/1 3/2/1
f 4/4/2 8/6/2 7/5/2
f 8/6/3 6/8/3 5/7/3
f 6/8/4 2/33/4 1/9/4
f 1/10/5 10/22/5 12/11/5
f 4/13/5 2/34/5 6/14/5
f 7/19/5 11/23/5 9/20/5
f 3/21/5 9/20/5 10/22/5
f 5/12/5 12/11/5 11/23/5
