# Blender 4.3.2
# www.blender.org
o Arrow
v 0.149637 2.131800 -0.152428
v 0.116069 15.815413 -0.118860
v 0.149637 2.131800 0.146847
v 0.116069 15.815413 0.113280
v -0.149638 2.131800 -0.152428
v -0.116071 15.815413 -0.118860
v -0.149638 2.131800 0.146847
v -0.116071 15.815413 0.113280
v 0.326944 2.358882 0.324153
v 0.326944 2.358882 -0.329735
v -0.326944 2.358882 0.324153
v -0.326944 2.358882 -0.329735
v 0.000000 -0.016868 -0.002791
vn 1.0000 0.0025 -0.0000
vn -0.0000 0.0025 1.0000
vn -1.0000 0.0025 -0.0000
vn -0.0000 0.0025 -1.0000
vn -0.0000 0.6154 0.7882
vn -0.0000 1.0000 -0.0000
vn -0.9907 -0.1363 -0.0000
vn -0.0000 0.6154 -0.7882
vn -0.7882 0.6154 -0.0000
vn 0.7882 0.6154 -0.0000
vn 0.9907 -0.1363 -0.0000
vn -0.0000 -0.1363 -0.9907
vn -0.0000 -0.1363 0.9907
vt 0.745071 0.540559
vt 0.794441 0.926448
vt 0.745071 0.926448
vt 0.794441 0.540559
vt 0.843810 0.926448
vt 0.843810 0.540559
vt 0.893179 0.926448
vt 0.893179 0.540559
vt 0.942549 0.926448
vt 0.762756 0.471236
vt 0.730638 0.389749
vt 0.762756 0.421867
vt 0.893612 0.439119
vt 0.844243 0.389749
vt 0.893612 0.389749
vt 0.730638 0.144449
vt 0.835152 0.099919
vt 0.835152 0.244834
vt 0.812125 0.421867
vt 0.844243 0.503354
vt 0.812125 0.471236
vt 0.730638 0.503354
vt 0.844243 0.389749
vt 0.730638 0.289364
vt 0.835152 0.389749
vt 0.835152 0.144449
vt 0.939666 0.099919
vt 0.939666 0.244834
vt 0.835152 0.289364
vt 0.939666 0.389749
vt 0.942549 0.540559
vt 0.844243 0.439119
s 0
f 2/1/1 3/2/1 1/3/1
f 4/4/2 7/5/2 3/2/2
f 8/6/3 5/7/3 7/5/3
f 6/8/4 1/9/4 5/7/4
f 1/10/5 12/11/5 5/12/5
f 4/13/6 6/14/6 8/15/6
f 11/16/7 12/17/7 13/18/7
f 7/19/8 9/20/8 3/21/8
f 3/21/9 10/22/9 1/10/9
f 5/12/10 11/23/10 7/19/10
f 10/24/11 9/18/11 13/25/11
f 12/26/12 10/27/12 13/28/12
f 9/29/13 11/28/13 13/30/13
f 2/1/1 4/4/1 3/2/1
f 4/4/2 8/6/2 7/5/2
f 8/6/3 6/8/3 5/7/3
f 6/8/4 2/31/4 1/9/4
f 1/10/5 10/22/5 12/11/5
f 4/13/6 2/32/6 6/14/6
f 7/19/8 11/23/8 9/20/8
f 3/21/9 9/20/9 10/22/9
f 5/12/10 12/11/10 11/23/10
