# Blender 4.3.2
# www.blender.org
o Gizmo
v -0.200000 -0.200000 -0.200000
v -0.200000 0.200000 0.200000
v 0.200000 0.200000 -0.200000
v 0.200000 0.200000 0.200000
v 0.200000 -0.200000 0.200000
v 0.200000 60.000004 -0.200000
v -0.200000 60.000004 -0.200000
v -0.200000 60.000004 0.200000
v 0.200000 60.000004 0.200000
v 60.000004 0.200000 0.200000
v 60.000004 0.200000 -0.200000
v 60.000004 -0.200000 -0.200000
v 60.000004 -0.200000 0.200000
v -0.200000 0.200000 60.000004
v 0.200000 0.200000 60.000004
v 0.200000 -0.200000 60.000004
v -0.200000 -0.200000 60.000004
vn 1.0000 -0.0000 -0.0000
vn -0.0000 -0.0000 1.0000
vn -0.0000 1.0000 -0.0000
vn -1.0000 -0.0000 -0.0000
vn -0.0000 -0.0000 -1.0000
vn -0.0000 -1.0000 -0.0000
vt 0.183095 0.116208
vt 0.127795 0.893025
vt 0.118425 0.116988
vt 0.877747 0.107948
vt 0.822447 0.884765
vt 0.813077 0.108728
vt 0.464092 0.873758
vt 0.519392 0.096941
vt 0.528762 0.872977
vt 0.104510 0.629916
vt 0.168399 0.564465
vt 0.169179 0.629135
vt 0.101755 0.841167
vt 0.157055 0.064350
vt 0.167205 0.905056
vt 0.170043 0.110209
vt 0.114743 0.887027
vt 0.105374 0.110990
vt 0.231094 0.839605
vt 0.157055 0.064350
vt 0.221724 0.063569
vt 0.802510 0.507698
vt 0.866399 0.442248
vt 0.867180 0.506918
vt 0.804386 0.878440
vt 0.859686 0.101623
vt 0.869056 0.877660
vt 0.771507 0.122251
vt 0.845547 0.897507
vt 0.780877 0.898288
vt 0.900847 0.120690
vt 0.845547 0.897507
vt 0.835396 0.056801
vt 0.569489 0.387084
vt 0.504039 0.323195
vt 0.568709 0.322414
vt 0.469917 0.853981
vt 0.525217 0.077164
vt 0.535368 0.917870
vt 0.584062 0.096160
vt 0.593432 0.872197
vt 0.599256 0.852419
vt 0.589887 0.076383
vt 0.192465 0.892244
vt 0.887116 0.883984
vt 0.454722 0.097722
vt 0.103729 0.565246
vt 0.092385 0.065130
vt 0.179413 0.886246
vt 0.167205 0.905056
vt 0.801730 0.443029
vt 0.795016 0.102404
vt 0.910216 0.896726
vt 0.504820 0.387865
vt 0.460547 0.077944
s 0
f 3/1/1 9/2/1 4/3/1
f 5/4/2 10/5/2 4/6/2
f 4/7/1 16/8/1 5/9/1
f 8/10/3 6/11/3 7/12/3
f 2/13/4 7/14/4 1/15/4
f 4/16/2 8/17/2 2/18/2
f 3/19/5 7/20/5 6/21/5
f 10/22/1 12/23/1 11/24/1
f 4/25/3 11/26/3 3/27/3
f 5/28/6 12/29/6 13/30/6
f 3/31/5 12/32/5 1/33/5
f 15/34/2 17/35/2 16/36/2
f 5/37/6 17/38/6 1/39/6
f 2/9/3 15/40/3 4/41/3
f 2/42/4 17/38/4 14/43/4
f 3/1/1 6/44/1 9/2/1
f 5/4/2 13/45/2 10/5/2
f 4/7/1 15/46/1 16/8/1
f 8/10/3 9/47/3 6/11/3
f 2/13/4 8/48/4 7/14/4
f 4/16/2 9/49/2 8/17/2
f 3/19/5 1/50/5 7/20/5
f 10/22/1 13/51/1 12/23/1
f 4/25/3 10/52/3 11/26/3
f 5/28/6 1/33/6 12/29/6
f 3/31/5 11/53/5 12/32/5
f 15/34/2 14/54/2 17/35/2
f 5/37/6 16/55/6 17/38/6
f 2/9/3 14/8/3 15/40/3
f 2/42/4 1/39/4 17/38/4
