# Blender 4.4.3
# www.blender.org
o Gizmo
v 1.000000 1.000000 -1.000000
v 1.000000 -1.000000 -1.000000
v 1.000000 1.000000 1.000000
v 1.000000 -1.000000 1.000000
v -1.000000 1.000000 -1.000000
v -1.000000 -1.000000 -1.000000
v -1.000000 1.000000 1.000000
v -1.000000 -1.000000 1.000000
v -11.999997 -0.000000 1.414217
v -11.999997 -1.414213 0.000004
v -9.999997 -0.000000 1.414217
v -9.999997 -1.414213 0.000003
v -9.999997 -0.000000 -1.414210
v -9.999997 1.414213 0.000003
v -11.999997 -0.000000 -1.414209
v -11.999997 1.414213 0.000004
v -9.999998 2.121320 -3.535531
v -11.999998 2.121320 -3.535530
v -11.999997 3.535534 -2.121317
v -9.999997 3.535534 -2.121317
v -11.999996 2.121320 3.535538
v -11.999997 3.535534 2.121325
v -9.999996 2.121320 3.535537
v -9.999997 3.535534 2.121324
v -9.999996 -2.121320 3.535537
v -11.999996 -2.121320 3.535538
v -9.999997 -3.535534 2.121324
v -11.999997 -3.535534 2.121325
v -9.999998 -2.121320 -3.535531
v -11.999998 -2.121320 -3.535530
v -11.999997 -3.535534 -2.121317
v -9.999997 -3.535534 -2.121317
v 1.000000 1.000000 1.000000
v -1.000000 1.000000 1.000000
v -1.000000 -1.000000 1.000000
v 1.000000 -1.000000 1.000000
v 1.000000 11.000000 1.000000
v -1.000000 11.000000 1.000000
v 1.000000 11.000000 -1.000000
v -1.000000 11.000000 -1.000000
v -1.161686 10.000002 0.956433
v -1.161686 12.000002 0.956433
v -1.161686 10.000002 -1.043567
v -1.161686 12.000002 -1.043567
v 1.194592 10.000002 0.956433
v 1.194592 12.000002 0.956433
v 1.194592 10.000002 -1.043567
v 1.194592 12.000002 -1.043567
v -0.000000 10.000002 -1.043567
v -0.000000 12.000002 -1.043567
v 0.000000 10.000002 0.956433
v 0.000000 12.000002 0.956433
v 1.000000 12.000002 -3.043567
v 2.000000 12.000002 -3.043567
v 2.000000 10.000002 -3.043567
v 1.000000 10.000002 -3.043567
v -2.000000 12.000002 -3.043567
v -2.000000 10.000002 -3.043567
v -1.000000 10.000002 -3.043567
v -1.000000 12.000002 -3.043567
v -1.161686 10.000002 1.956433
v -1.161686 12.000002 1.956433
v 1.194593 12.000002 1.956433
v 1.194593 10.000002 1.956433
v 0.000000 10.000002 1.956433
v 0.000000 12.000002 1.956433
v -11.000000 1.000000 -0.999998
v -11.000000 -1.000000 -0.999998
v -11.000000 1.000000 1.000002
v -11.000000 -1.000000 1.000002
v 0.999998 1.000000 -11.000000
v 0.999998 -1.000000 -11.000000
v -1.000002 1.000000 -11.000000
v -1.000002 -1.000000 -11.000000
v -3.386059 2.532452 -10.223264
v -3.386059 4.532452 -10.223264
v -3.386059 2.532452 -12.223264
v -3.386059 4.532452 -12.223264
v 3.167732 2.532452 -10.223266
v 3.167732 4.532452 -10.223266
v 3.167732 2.532452 -12.223266
v 3.167732 4.532452 -12.223266
v -0.502674 2.532452 -12.223265
v -1.603711 4.532452 -12.223265
v -0.502674 2.532452 -10.223265
v -1.603711 4.532452 -10.223265
v 0.281913 0.088782 -12.223265
v 0.281913 0.088782 -10.223265
v 3.070061 0.078246 -12.223265
v 3.070061 0.078246 -10.223265
v 1.918905 -1.911217 -12.223265
v 1.918905 -1.911217 -10.223265
v 3.070061 -1.911217 -12.223265
v 3.070061 -1.911217 -10.223265
v -3.081095 0.088782 -12.223265
v -3.081095 0.088782 -10.223265
v -3.081095 -1.911217 -12.223265
v -3.081095 -1.911217 -10.223265
vn -1.0000 -0.0000 -0.0000
vn -0.0000 -1.0000 -0.0000
vn -0.0000 1.0000 -0.0000
vn 1.0000 -0.0000 -0.0000
vn -0.0000 -0.7071 -0.7071
vn -0.0000 0.7071 -0.7071
vn -0.0000 0.7071 0.7071
vn -0.0000 -0.7071 0.7071
vn -0.0000 -0.0000 1.0000
vn -0.0000 -0.0000 -1.0000
vn -0.8944 -0.0000 -0.4472
vn 0.9276 -0.0000 0.3736
vn -0.9223 -0.0000 0.3866
vn 0.8944 -0.0000 -0.4472
vn 0.5662 0.8243 -0.0000
vn -0.5544 -0.8322 -0.0000
vt 0.875000 0.500000
vt 0.875000 0.750000
vt 0.625000 0.250000
vt 0.375000 0.500000
vt 0.375000 0.250000
vt 0.625000 0.500000
vt 0.375000 0.750000
vt 0.625000 0.750000
vt 0.125000 0.500000
vt 0.125000 0.750000
vt 0.375000 1.000000
vt 0.625000 0.000000
vt 0.375000 0.000000
vt 0.625000 1.000000
vt 0.750000 0.500000
vt 0.750000 0.750000
vt 0.250000 0.750000
vt 0.250000 0.500000
vt 0.625000 0.375000
vt 0.375000 0.375000
vt 0.625000 0.875000
vt 0.375000 0.875000
vt 0.000000 0.000000
vt 0.375000 0.317989
vt 0.625000 0.932011
vt 0.375000 0.932011
vt 0.192989 0.750000
vt 0.192989 0.500000
vt 0.807011 0.750000
vt 0.807011 0.500000
vt 0.625000 0.317989
s 0
f 7/1/1 40/2/1 5/2/1
f 2/3/2 8/4/2 6/5/2
f 8/4/3 36/6/3 35/4/3
f 6/5/2 72/3/2 2/3/2
f 12/7/4 25/8/4 27/7/4
f 8/4/2 68/5/2 6/5/2
f 10/9/1 30/10/1 31/9/1
f 13/4/4 11/8/4 12/7/4
f 15/3/5 17/6/5 13/6/5
f 9/4/1 15/10/1 10/9/1
f 16/7/1 21/4/1 22/7/1
f 19/8/6 17/11/6 18/7/6
f 14/6/4 17/4/4 20/6/4
f 16/7/1 18/10/1 15/10/1
f 14/8/7 19/6/7 16/6/7
f 21/1/7 24/8/7 22/6/7
f 14/6/4 23/8/4 11/8/4
f 11/12/8 21/3/8 9/3/8
f 16/6/6 24/8/6 14/8/6
f 25/12/8 28/5/8 27/13/8
f 10/9/1 26/4/1 9/4/1
f 12/4/5 28/5/5 10/5/5
f 9/3/7 25/12/7 11/12/7
f 30/3/5 32/4/5 31/5/5
f 13/6/6 30/3/6 15/3/6
f 10/5/8 32/4/8 12/4/8
f 12/7/4 29/4/4 13/4/4
f 33/6/9 35/7/9 36/4/9
f 7/1/3 35/6/3 34/1/3
f 4/11/3 33/14/3 36/11/3
f 3/5/3 34/3/3 33/5/3
f 40/12/3 37/5/3 39/13/3
f 1/13/4 37/5/4 3/5/4
f 5/4/10 39/7/10 1/7/10
f 3/5/9 38/3/9 7/3/9
f 42/12/1 43/5/1 41/13/1
f 48/6/3 53/15/3 50/15/3
f 48/6/4 45/7/4 47/4/4
f 42/2/3 66/16/3 52/16/3
f 47/4/2 51/17/2 49/18/2
f 44/1/3 52/16/3 50/15/3
f 50/15/3 46/8/3 48/6/3
f 49/18/2 41/10/2 43/9/2
f 52/16/3 63/8/3 46/8/3
f 43/9/2 59/18/2 49/18/2
f 53/19/10 55/4/10 56/20/10
f 47/4/2 56/18/2 55/4/2
f 50/19/11 56/20/11 49/20/11
f 47/4/12 54/6/12 48/6/12
f 57/3/10 59/20/10 58/5/10
f 44/1/3 60/15/3 57/1/3
f 44/3/13 58/5/13 43/5/13
f 49/20/14 60/19/14 50/19/14
f 66/21/9 61/11/9 65/22/9
f 63/8/9 65/22/9 64/7/9
f 46/8/4 64/7/4 45/7/4
f 51/17/2 61/10/2 41/10/2
f 41/13/1 62/12/1 42/12/1
f 45/7/2 65/17/2 51/17/2
f 69/1/1 68/8/1 70/6/1
f 5/2/3 69/1/3 7/1/3
f 7/1/9 70/6/9 8/6/9
f 6/9/10 67/4/10 5/4/10
f 73/4/10 72/10/10 74/9/10
f 2/23/4 71/23/4 1/23/4
f 5/4/1 74/9/1 6/9/1
f 1/7/3 73/4/3 5/4/3
f 76/12/1 77/5/1 75/13/1
f 83/24/10 82/6/10 81/4/10
f 82/6/4 79/7/4 81/4/4
f 86/25/9 75/11/9 85/26/9
f 81/4/2 85/27/2 83/28/2
f 78/1/3 86/29/3 84/30/3
f 84/30/3 80/8/3 82/6/3
f 85/26/9 88/11/9 90/26/9
f 80/8/9 85/26/9 79/7/9
f 77/5/10 84/31/10 83/24/10
f 90/26/9 92/11/9 94/26/9
f 85/27/15 89/28/15 83/28/15
f 83/24/10 87/5/10 77/5/10
f 77/5/16 88/13/16 75/13/16
f 93/28/2 92/10/2 91/9/2
f 92/10/2 97/9/2 91/9/2
f 90/27/4 93/28/4 89/28/4
f 89/24/10 91/5/10 87/5/10
f 95/5/1 98/13/1 96/13/1
f 87/5/3 96/13/3 88/13/3
f 87/5/10 97/5/10 95/5/10
f 88/11/9 98/11/9 92/11/9
f 2/3/4 3/5/4 4/6/4
f 7/1/1 38/1/1 40/2/1
f 2/3/2 4/6/2 8/4/2
f 8/4/3 4/6/3 36/6/3
f 6/5/2 74/5/2 72/3/2
f 12/7/4 11/8/4 25/8/4
f 8/4/2 70/4/2 68/5/2
f 10/9/1 15/10/1 30/10/1
f 13/4/4 14/6/4 11/8/4
f 15/3/5 18/3/5 17/6/5
f 9/4/1 16/7/1 15/10/1
f 16/7/1 9/4/1 21/4/1
f 19/8/6 20/14/6 17/11/6
f 14/6/4 13/4/4 17/4/4
f 16/7/1 19/7/1 18/10/1
f 14/8/7 20/8/7 19/6/7
f 21/1/7 23/2/7 24/8/7
f 14/6/4 24/6/4 23/8/4
f 11/12/8 23/12/8 21/3/8
f 16/6/6 22/6/6 24/8/6
f 25/12/8 26/3/8 28/5/8
f 10/9/1 28/9/1 26/4/1
f 12/4/5 27/4/5 28/5/5
f 9/3/7 26/3/7 25/12/7
f 30/3/5 29/6/5 32/4/5
f 13/6/6 29/6/6 30/3/6
f 10/5/8 31/5/8 32/4/8
f 12/7/4 32/7/4 29/4/4
f 33/6/9 34/8/9 35/7/9
f 7/1/3 8/6/3 35/6/3
f 4/11/3 3/14/3 33/14/3
f 3/5/3 7/3/3 34/3/3
f 40/12/3 38/3/3 37/5/3
f 1/13/4 39/13/4 37/5/4
f 5/4/10 40/4/10 39/7/10
f 3/5/9 37/5/9 38/3/9
f 42/12/1 44/3/1 43/5/1
f 48/6/3 54/6/3 53/15/3
f 48/6/4 46/8/4 45/7/4
f 42/2/3 62/2/3 66/16/3
f 47/4/2 45/7/2 51/17/2
f 44/1/3 42/2/3 52/16/3
f 50/15/3 52/16/3 46/8/3
f 49/18/2 51/17/2 41/10/2
f 52/16/3 66/16/3 63/8/3
f 43/9/2 58/9/2 59/18/2
f 53/19/10 54/6/10 55/4/10
f 47/4/2 49/18/2 56/18/2
f 50/19/11 53/19/11 56/20/11
f 47/4/12 55/4/12 54/6/12
f 57/3/10 60/19/10 59/20/10
f 44/1/3 50/15/3 60/15/3
f 44/3/13 57/3/13 58/5/13
f 49/20/14 59/20/14 60/19/14
f 66/21/9 62/14/9 61/11/9
f 63/8/9 66/21/9 65/22/9
f 46/8/4 63/8/4 64/7/4
f 51/17/2 65/17/2 61/10/2
f 41/13/1 61/13/1 62/12/1
f 45/7/2 64/7/2 65/17/2
f 69/1/1 67/2/1 68/8/1
f 5/2/3 67/2/3 69/1/3
f 7/1/9 69/1/9 70/6/9
f 6/9/10 68/9/10 67/4/10
f 73/4/10 71/7/10 72/10/10
f 2/23/4 72/23/4 71/23/4
f 5/4/1 73/4/1 74/9/1
f 1/7/3 71/7/3 73/4/3
f 76/12/1 78/3/1 77/5/1
f 83/24/10 84/31/10 82/6/10
f 82/6/4 80/8/4 79/7/4
f 86/25/9 76/14/9 75/11/9
f 81/4/2 79/7/2 85/27/2
f 78/1/3 76/2/3 86/29/3
f 84/30/3 86/29/3 80/8/3
f 85/26/9 75/11/9 88/11/9
f 80/8/9 86/25/9 85/26/9
f 77/5/10 78/3/10 84/31/10
f 90/26/9 88/11/9 92/11/9
f 85/27/15 90/27/15 89/28/15
f 83/24/10 89/24/10 87/5/10
f 77/5/16 87/5/16 88/13/16
f 93/28/2 94/27/2 92/10/2
f 92/10/2 98/10/2 97/9/2
f 90/27/4 94/27/4 93/28/4
f 89/24/10 93/24/10 91/5/10
f 95/5/1 97/5/1 98/13/1
f 87/5/3 95/5/3 96/13/3
f 87/5/10 91/5/10 97/5/10
f 88/11/9 96/11/9 98/11/9
f 2/3/4 1/23/4 3/5/4
