# Blender 4.3.2
# www.blender.org
o TileBorder
v -7.500000 7.500000 0.295313
v -7.500000 -7.500000 0.295313
v 7.500000 7.500000 0.295313
v 7.500000 -7.500000 0.295313
v 7.377214 7.377214 0.295313
v -7.377214 7.377214 0.295313
v -7.377214 -7.377214 0.295313
v 7.377214 -7.377214 0.295313
v -2.459071 -7.377214 0.295313
v 2.459071 -7.377214 0.295313
v -2.500000 -7.500000 0.295313
v 2.500000 -7.500000 0.295313
v 2.459071 7.377214 0.295313
v -2.459071 7.377214 0.295313
v 2.500000 7.500000 0.295313
v -2.500000 7.500000 0.295313
v -7.377214 -2.459071 0.295313
v -7.377214 2.459071 0.295313
v -7.500000 -2.500000 0.295313
v -7.500000 2.500000 0.295313
v 7.500000 -2.500000 0.295313
v 7.500000 2.500000 0.295313
v 7.377214 -2.459071 0.295313
v 7.377214 2.459071 0.295313
v -2.459071 -2.459071 0.295313
v -2.459071 2.459071 0.295313
v 2.459071 -2.459071 0.295313
v 2.459071 2.459071 0.295313
v -2.459071 -2.459071 0.295313
v -2.459071 2.459071 0.295313
v 2.459071 -2.459071 0.295313
v 2.459071 2.459071 0.295313
v -0.819690 -7.377214 0.295313
v 0.819690 -7.377214 0.295313
v -0.833333 -7.500000 0.295313
v 0.833333 -7.500000 0.295313
v 0.819690 7.377214 0.295313
v -0.819690 7.377214 0.295313
v 0.833333 7.500000 0.295313
v -0.833333 7.500000 0.295313
v -0.819690 2.459071 0.295313
v 0.819690 2.459071 0.295313
v -0.819690 -2.459071 0.295313
v 0.819690 -2.459071 0.295313
v -0.819690 2.459071 0.295313
v 0.819690 2.459071 0.295313
v -0.819690 -2.459071 0.295313
v 0.819690 -2.459071 0.295313
v -7.377214 4.098452 0.295313
v -7.377214 5.737833 0.295313
v -7.500000 4.166667 0.295313
v -7.500000 5.833333 0.295313
v 7.500000 4.166667 0.295313
v 7.500000 5.833333 0.295313
v 7.377214 4.098452 0.295313
v 7.377214 5.737833 0.295313
v -2.459071 4.098452 0.295313
v -2.459071 5.737833 0.295313
v 2.459071 4.098452 0.295313
v 2.459071 5.737833 0.295313
v -2.409892 2.508254 0.295313
v -2.409892 7.328032 0.295313
v 2.409886 2.508254 0.295313
v 2.409886 7.328032 0.295313
v -7.377214 -0.819690 0.295313
v -7.377214 0.819690 0.295313
v -7.500000 -0.833333 0.295313
v -7.500000 0.833333 0.295313
v 7.500000 -0.833333 0.295313
v 7.500000 0.833333 0.295313
v 7.377214 -0.819690 0.295313
v 7.377214 0.819690 0.295313
v -2.459071 -0.819690 0.295313
v -2.459071 0.819690 0.295313
v 2.459071 -0.819690 0.295313
v 2.459071 0.819690 0.295313
v -2.459071 -0.819690 0.295313
v -2.459071 0.819690 0.295313
v 2.459071 -0.819690 0.295313
v 2.459071 0.819690 0.295313
v -2.409892 -2.409889 0.295313
v -2.409892 2.409889 0.295313
v 2.409886 -2.409889 0.295313
v 2.409886 2.409889 0.295313
v -7.377214 -5.737833 0.295313
v -7.377214 -4.098452 0.295313
v -7.500000 -5.833333 0.295313
v -7.500000 -4.166667 0.295313
v 7.500000 -5.833333 0.295313
v 7.500000 -4.166667 0.295313
v 7.377214 -5.737833 0.295313
v 7.377214 -4.098452 0.295313
v -2.459071 -5.737833 0.295313
v -2.459071 -4.098452 0.295313
v 2.459071 -5.737833 0.295313
v 2.459071 -4.098452 0.295313
v -2.409892 -7.328032 0.295313
v -2.409892 -2.508254 0.295313
v 2.409886 -7.328032 0.295313
v 2.409886 -2.508254 0.295313
v -4.098452 7.377214 0.295313
v -5.737833 7.377214 0.295313
v -4.166667 7.500000 0.295313
v -5.833333 7.500000 0.295313
v -5.737833 -7.377214 0.295313
v -4.098452 -7.377214 0.295313
v -5.833333 -7.500000 0.295313
v -4.166667 -7.500000 0.295313
v -5.737833 2.459071 0.295313
v -4.098452 2.459071 0.295313
v -5.737833 -2.459071 0.295313
v -4.098452 -2.459071 0.295313
v -7.328034 7.328032 0.295313
v -2.508255 7.328032 0.295313
v -7.328034 2.508254 0.295313
v -2.508255 2.508254 0.295313
v -7.328034 2.409889 0.295313
v -2.508255 2.409889 0.295313
v -7.328034 -2.409889 0.295313
v -2.508255 -2.409889 0.295313
v -7.328034 -2.508254 0.295313
v -2.508255 -2.508254 0.295313
v -7.328034 -7.328032 0.295313
v -2.508255 -7.328032 0.295313
v 4.098452 -7.377214 0.295313
v 5.737833 -7.377214 0.295313
v 4.166667 -7.500000 0.295313
v 5.833333 -7.500000 0.295313
v 5.737833 7.377214 0.295313
v 4.098452 7.377214 0.295313
v 5.833333 7.500000 0.295313
v 4.166667 7.500000 0.295313
v 4.098452 2.459071 0.295313
v 5.737833 2.459071 0.295313
v 4.098452 -2.459071 0.295313
v 5.737833 -2.459071 0.295313
v 2.508252 7.328032 0.295313
v 7.328031 7.328032 0.295313
v 2.508252 2.508254 0.295313
v 7.328031 2.508254 0.295313
v 2.508252 2.409889 0.295313
v 7.328031 2.409889 0.295313
v 2.508252 -2.409889 0.295313
v 7.328031 -2.409889 0.295313
v 2.508252 -2.508254 0.295313
v 7.328031 -2.508254 0.295313
v 2.508252 -7.328032 0.295313
v 7.328031 -7.328032 0.295313
vn -0.0000 -0.0000 1.0000
vt 0.155018 0.943548
vt 0.087923 0.912076
vt 0.179496 0.912076
vt 0.087924 0.087923
vt 0.155018 0.056452
vt 0.179496 0.087923
vt 0.943548 0.155018
vt 0.912077 0.087923
vt 0.943548 0.056452
vt 0.056452 0.155018
vt 0.087924 0.179496
vt 0.820504 0.179496
vt 0.912076 0.179496
vt 0.271069 0.179496
vt 0.362641 0.087923
vt 0.362641 0.179496
vt 0.545786 0.179496
vt 0.637359 0.087923
vt 0.637359 0.179496
vt 0.728931 0.087923
vt 0.647849 0.056452
vt 0.746415 0.056452
vt 0.450717 0.056452
vt 0.454214 0.087923
vt 0.728931 0.912076
vt 0.647849 0.943548
vt 0.637359 0.912076
vt 0.450717 0.943548
vt 0.362641 0.912076
vt 0.454214 0.912076
vt 0.545786 0.728931
vt 0.637359 0.637359
vt 0.637359 0.728931
vt 0.545786 0.454214
vt 0.637359 0.362641
vt 0.637359 0.454214
vt 0.271069 0.728931
vt 0.362641 0.637359
vt 0.362641 0.728931
vt 0.271069 0.454214
vt 0.362641 0.362641
vt 0.362641 0.454214
vt 0.820504 0.728931
vt 0.912076 0.637359
vt 0.912076 0.728931
vt 0.820504 0.454214
vt 0.912076 0.362641
vt 0.912076 0.454214
vt 0.087923 0.728931
vt 0.056452 0.647849
vt 0.087923 0.637359
vt 0.056452 0.450717
vt 0.087924 0.362641
vt 0.087924 0.454214
vt 0.943548 0.647849
vt 0.943548 0.746415
vt 0.943548 0.450717
vt 0.943548 0.352151
vt 0.362641 0.545786
vt 0.545786 0.637359
vt 0.454214 0.362641
vt 0.545786 0.362641
vt 0.454214 0.637359
vt 0.454214 0.454214
vt 0.454214 0.728931
vt 0.549283 0.943548
vt 0.545786 0.912076
vt 0.549283 0.056452
vt 0.545786 0.087923
vt 0.454214 0.179496
vt 0.545786 0.820504
vt 0.454214 0.820504
vt 0.362641 0.820504
vt 0.912076 0.912077
vt 0.943548 0.844982
vt 0.943548 0.943548
vt 0.912076 0.820504
vt 0.056452 0.844982
vt 0.087923 0.820504
vt 0.056452 0.746415
vt 0.820504 0.820504
vt 0.820504 0.912076
vt 0.271069 0.820504
vt 0.271069 0.912076
vt 0.637359 0.820504
vt 0.545786 0.545786
vt 0.454214 0.545786
vt 0.637359 0.545786
vt 0.943548 0.549283
vt 0.912076 0.545786
vt 0.056452 0.549283
vt 0.087924 0.545786
vt 0.820504 0.545786
vt 0.820504 0.637359
vt 0.271069 0.545786
vt 0.271069 0.637359
vt 0.545786 0.271069
vt 0.454214 0.271069
vt 0.362641 0.271069
vt 0.637359 0.271069
vt 0.271069 0.271069
vt 0.271069 0.362641
vt 0.820504 0.271069
vt 0.820504 0.362641
vt 0.912076 0.271069
vt 0.056452 0.352151
vt 0.087924 0.271069
vt 0.056452 0.253585
vt 0.943548 0.253585
vt 0.179496 0.271069
vt 0.179496 0.362641
vt 0.179496 0.545786
vt 0.179496 0.637359
vt 0.179496 0.820504
vt 0.179496 0.454214
vt 0.179496 0.728931
vt 0.179496 0.179496
vt 0.271069 0.087923
vt 0.352151 0.056452
vt 0.253585 0.056452
vt 0.352151 0.943548
vt 0.253585 0.943548
vt 0.728931 0.271069
vt 0.728931 0.362641
vt 0.728931 0.545786
vt 0.728931 0.637359
vt 0.728931 0.820504
vt 0.728931 0.454214
vt 0.728931 0.728931
vt 0.844982 0.943548
vt 0.746415 0.943548
vt 0.844982 0.056452
vt 0.820504 0.087923
vt 0.728931 0.179496
vt 0.056452 0.943548
vt 0.056452 0.056452
s 0
f 104/1/1 6/2/1 102/3/1
f 7/4/1 107/5/1 105/6/1
f 89/7/1 8/8/1 4/9/1
f 87/10/1 7/4/1 85/11/1
f 148/12/1 8/8/1 91/13/1
f 124/14/1 9/15/1 93/16/1
f 99/17/1 10/18/1 95/19/1
f 125/20/1 12/21/1 127/22/1
f 9/15/1 35/23/1 33/24/1
f 130/25/1 15/26/1 13/27/1
f 40/28/1 14/29/1 38/30/1
f 63/31/1 32/32/1 59/33/1
f 83/34/1 27/35/1 79/36/1
f 116/37/1 30/38/1 57/39/1
f 120/40/1 29/41/1 73/42/1
f 140/43/1 24/44/1 55/45/1
f 144/46/1 23/47/1 71/48/1
f 49/49/1 20/50/1 18/51/1
f 67/52/1 17/53/1 65/54/1
f 55/45/1 22/55/1 53/56/1
f 69/57/1 23/47/1 21/58/1
f 78/59/1 30/38/1 74/59/1
f 79/36/1 31/35/1 75/36/1
f 46/60/1 32/32/1 42/60/1
f 47/61/1 29/41/1 43/61/1
f 27/35/1 44/62/1 31/35/1
f 48/62/1 43/61/1 44/62/1
f 26/38/1 41/63/1 30/38/1
f 45/63/1 42/60/1 41/63/1
f 25/41/1 81/64/1 77/42/1
f 47/61/1 83/34/1 81/64/1
f 30/38/1 61/65/1 57/39/1
f 41/63/1 63/31/1 61/65/1
f 13/27/1 39/66/1 37/67/1
f 39/66/1 38/30/1 37/67/1
f 10/18/1 36/68/1 12/21/1
f 33/24/1 36/68/1 34/69/1
f 9/15/1 97/70/1 93/16/1
f 33/24/1 99/17/1 97/70/1
f 38/30/1 64/71/1 37/67/1
f 14/29/1 62/72/1 38/30/1
f 57/39/1 62/72/1 58/73/1
f 5/74/1 54/75/1 3/76/1
f 56/77/1 53/56/1 54/75/1
f 6/2/1 52/78/1 50/79/1
f 50/79/1 51/80/1 49/49/1
f 138/81/1 5/74/1 129/82/1
f 138/81/1 55/45/1 56/77/1
f 114/83/1 14/29/1 101/84/1
f 114/83/1 57/39/1 58/73/1
f 64/71/1 13/27/1 37/67/1
f 64/71/1 59/33/1 60/85/1
f 45/63/1 84/86/1 46/60/1
f 26/38/1 82/87/1 45/63/1
f 77/42/1 82/87/1 78/59/1
f 28/32/1 76/88/1 32/32/1
f 80/88/1 75/36/1 76/88/1
f 25/41/1 73/42/1 29/41/1
f 77/42/1 74/59/1 73/42/1
f 24/44/1 70/89/1 22/55/1
f 72/90/1 69/57/1 70/89/1
f 18/51/1 68/91/1 66/92/1
f 68/91/1 65/54/1 66/92/1
f 142/93/1 24/44/1 134/94/1
f 144/46/1 72/90/1 142/93/1
f 118/95/1 30/38/1 110/96/1
f 120/40/1 74/59/1 118/95/1
f 84/86/1 28/32/1 46/60/1
f 83/34/1 80/88/1 84/86/1
f 43/61/1 100/97/1 44/62/1
f 29/41/1 98/98/1 43/61/1
f 93/16/1 98/98/1 94/99/1
f 100/97/1 31/35/1 44/62/1
f 99/17/1 96/100/1 100/97/1
f 122/101/1 29/41/1 112/102/1
f 124/14/1 94/99/1 122/101/1
f 146/103/1 23/47/1 136/104/1
f 148/12/1 92/105/1 146/103/1
f 19/106/1 86/107/1 17/53/1
f 88/108/1 85/11/1 86/107/1
f 21/58/1 92/105/1 90/109/1
f 90/109/1 91/13/1 89/7/1
f 85/11/1 121/110/1 86/107/1
f 17/53/1 121/110/1 111/111/1
f 111/111/1 122/101/1 112/102/1
f 65/54/1 117/112/1 66/92/1
f 18/51/1 117/112/1 109/113/1
f 109/113/1 118/95/1 110/96/1
f 49/49/1 113/114/1 50/79/1
f 6/2/1 113/114/1 102/3/1
f 102/3/1 114/83/1 101/84/1
f 17/53/1 119/115/1 65/54/1
f 111/111/1 120/40/1 119/115/1
f 18/51/1 115/116/1 49/49/1
f 109/113/1 116/37/1 115/116/1
f 7/4/1 123/117/1 85/11/1
f 105/6/1 124/14/1 123/117/1
f 106/118/1 11/119/1 9/15/1
f 105/6/1 108/120/1 106/118/1
f 16/121/1 101/84/1 14/29/1
f 103/122/1 102/3/1 101/84/1
f 95/19/1 145/123/1 96/100/1
f 31/35/1 145/123/1 135/124/1
f 135/124/1 146/103/1 136/104/1
f 75/36/1 141/125/1 76/88/1
f 32/32/1 141/125/1 133/126/1
f 133/126/1 142/93/1 134/94/1
f 59/33/1 137/127/1 60/85/1
f 13/27/1 137/127/1 130/25/1
f 130/25/1 138/81/1 129/82/1
f 31/35/1 143/128/1 75/36/1
f 135/124/1 144/46/1 143/128/1
f 32/32/1 139/129/1 59/33/1
f 133/126/1 140/43/1 139/129/1
f 5/74/1 131/130/1 129/82/1
f 129/82/1 132/131/1 130/25/1
f 8/8/1 128/132/1 4/9/1
f 126/133/1 127/22/1 128/132/1
f 10/18/1 147/134/1 95/19/1
f 125/20/1 148/12/1 147/134/1
f 104/1/1 1/135/1 6/2/1
f 7/4/1 2/136/1 107/5/1
f 89/7/1 91/13/1 8/8/1
f 87/10/1 2/136/1 7/4/1
f 148/12/1 126/133/1 8/8/1
f 124/14/1 106/118/1 9/15/1
f 99/17/1 34/69/1 10/18/1
f 125/20/1 10/18/1 12/21/1
f 9/15/1 11/119/1 35/23/1
f 130/25/1 132/131/1 15/26/1
f 40/28/1 16/121/1 14/29/1
f 63/31/1 42/60/1 32/32/1
f 83/34/1 48/62/1 27/35/1
f 116/37/1 110/96/1 30/38/1
f 120/40/1 112/102/1 29/41/1
f 140/43/1 134/94/1 24/44/1
f 144/46/1 136/104/1 23/47/1
f 49/49/1 51/80/1 20/50/1
f 67/52/1 19/106/1 17/53/1
f 55/45/1 24/44/1 22/55/1
f 69/57/1 71/48/1 23/47/1
f 78/59/1 26/38/1 30/38/1
f 79/36/1 27/35/1 31/35/1
f 46/60/1 28/32/1 32/32/1
f 47/61/1 25/41/1 29/41/1
f 27/35/1 48/62/1 44/62/1
f 48/62/1 47/61/1 43/61/1
f 26/38/1 45/63/1 41/63/1
f 45/63/1 46/60/1 42/60/1
f 25/41/1 47/61/1 81/64/1
f 47/61/1 48/62/1 83/34/1
f 30/38/1 41/63/1 61/65/1
f 41/63/1 42/60/1 63/31/1
f 13/27/1 15/26/1 39/66/1
f 39/66/1 40/28/1 38/30/1
f 10/18/1 34/69/1 36/68/1
f 33/24/1 35/23/1 36/68/1
f 9/15/1 33/24/1 97/70/1
f 33/24/1 34/69/1 99/17/1
f 38/30/1 62/72/1 64/71/1
f 14/29/1 58/73/1 62/72/1
f 57/39/1 61/65/1 62/72/1
f 5/74/1 56/77/1 54/75/1
f 56/77/1 55/45/1 53/56/1
f 6/2/1 1/135/1 52/78/1
f 50/79/1 52/78/1 51/80/1
f 138/81/1 56/77/1 5/74/1
f 138/81/1 140/43/1 55/45/1
f 114/83/1 58/73/1 14/29/1
f 114/83/1 116/37/1 57/39/1
f 64/71/1 60/85/1 13/27/1
f 64/71/1 63/31/1 59/33/1
f 45/63/1 82/87/1 84/86/1
f 26/38/1 78/59/1 82/87/1
f 77/42/1 81/64/1 82/87/1
f 28/32/1 80/88/1 76/88/1
f 80/88/1 79/36/1 75/36/1
f 25/41/1 77/42/1 73/42/1
f 77/42/1 78/59/1 74/59/1
f 24/44/1 72/90/1 70/89/1
f 72/90/1 71/48/1 69/57/1
f 18/51/1 20/50/1 68/91/1
f 68/91/1 67/52/1 65/54/1
f 142/93/1 72/90/1 24/44/1
f 144/46/1 71/48/1 72/90/1
f 118/95/1 74/59/1 30/38/1
f 120/40/1 73/42/1 74/59/1
f 84/86/1 80/88/1 28/32/1
f 83/34/1 79/36/1 80/88/1
f 43/61/1 98/98/1 100/97/1
f 29/41/1 94/99/1 98/98/1
f 93/16/1 97/70/1 98/98/1
f 100/97/1 96/100/1 31/35/1
f 99/17/1 95/19/1 96/100/1
f 122/101/1 94/99/1 29/41/1
f 124/14/1 93/16/1 94/99/1
f 146/103/1 92/105/1 23/47/1
f 148/12/1 91/13/1 92/105/1
f 19/106/1 88/108/1 86/107/1
f 88/108/1 87/10/1 85/11/1
f 21/58/1 23/47/1 92/105/1
f 90/109/1 92/105/1 91/13/1
f 85/11/1 123/117/1 121/110/1
f 17/53/1 86/107/1 121/110/1
f 111/111/1 121/110/1 122/101/1
f 65/54/1 119/115/1 117/112/1
f 18/51/1 66/92/1 117/112/1
f 109/113/1 117/112/1 118/95/1
f 49/49/1 115/116/1 113/114/1
f 6/2/1 50/79/1 113/114/1
f 102/3/1 113/114/1 114/83/1
f 17/53/1 111/111/1 119/115/1
f 111/111/1 112/102/1 120/40/1
f 18/51/1 109/113/1 115/116/1
f 109/113/1 110/96/1 116/37/1
f 7/4/1 105/6/1 123/117/1
f 105/6/1 106/118/1 124/14/1
f 106/118/1 108/120/1 11/119/1
f 105/6/1 107/5/1 108/120/1
f 16/121/1 103/122/1 101/84/1
f 103/122/1 104/1/1 102/3/1
f 95/19/1 147/134/1 145/123/1
f 31/35/1 96/100/1 145/123/1
f 135/124/1 145/123/1 146/103/1
f 75/36/1 143/128/1 141/125/1
f 32/32/1 76/88/1 141/125/1
f 133/126/1 141/125/1 142/93/1
f 59/33/1 139/129/1 137/127/1
f 13/27/1 60/85/1 137/127/1
f 130/25/1 137/127/1 138/81/1
f 31/35/1 135/124/1 143/128/1
f 135/124/1 136/104/1 144/46/1
f 32/32/1 133/126/1 139/129/1
f 133/126/1 134/94/1 140/43/1
f 5/74/1 3/76/1 131/130/1
f 129/82/1 131/130/1 132/131/1
f 8/8/1 126/133/1 128/132/1
f 126/133/1 125/20/1 127/22/1
f 10/18/1 125/20/1 147/134/1
f 125/20/1 126/133/1 148/12/1
