# Blender 4.3.2
# www.blender.org
o Tile1010
v 7.500000 7.500000 -1.125000
v 7.500000 -7.500000 0.000000
v -7.500000 7.500000 0.000000
v 0.000000 7.500000 0.000000
v 0.000000 -7.500000 0.000000
v 7.500000 0.000000 0.000000
v 1.232309 2.198287 0.000000
v 7.500000 0.000000 -1.125000
v 0.000000 7.500000 -1.125000
v 1.232309 2.198287 -1.125000
v -7.500000 -7.500000 -1.125000
v 0.000000 -7.500000 -1.125000
v -7.500000 0.000000 -1.125000
v -2.705163 -0.907799 -1.125000
v -7.500000 0.000000 0.000000
v -2.705163 -0.907799 0.000000
v 1.648428 0.698861 0.000000
v 1.648428 0.698861 -1.125000
v -2.241979 -2.325084 -1.125000
v -2.241979 -2.325084 0.000000
vn -0.0000 -0.0000 1.0000
vn 0.9740 0.2264 -0.0000
vn -0.9176 -0.3975 -0.0000
vn -0.1860 -0.9825 -0.0000
vn 0.1186 0.9929 -0.0000
vn 0.9636 0.2674 -0.0000
vn -0.9505 -0.3106 -0.0000
vt 0.882978 0.630697
vt 0.850935 0.768553
vt 0.687962 0.630697
vt 0.840115 0.807541
vt 0.687962 0.825713
vt 0.330987 0.730896
vt 0.330987 0.823539
vt 0.286299 0.823539
vt 0.286299 0.730896
vt 0.366731 0.061385
vt 0.478454 0.166261
vt 0.217339 0.186739
vt 0.114559 0.853341
vt 0.114559 0.790261
vt 0.166869 0.853341
vt 0.114559 0.775938
vt 0.114559 0.678693
vt 0.166869 0.775938
vt 0.685758 0.792471
vt 0.662153 0.667794
vt 0.857169 0.667794
vt 0.857169 0.862811
vt 0.722610 0.804515
vt 0.166869 0.678693
vt 0.766831 0.234814
vt 0.515276 0.149488
vt 0.641476 0.085422
vt 0.342694 0.336131
vt 0.483244 0.294295
vt 0.519216 0.279833
vt 0.617439 0.360168
vt 0.166869 0.790261
vt 0.244372 0.709360
vt 0.244372 0.809676
vt 0.199688 0.709360
vt 0.199688 0.809676
vt 0.286299 0.704410
vt 0.330987 0.704410
s 0
f 9/1/1 10/2/1 1/3/1
f 18/4/1 8/5/1 1/3/1
f 10/6/2 9/7/2 4/8/2
f 4/8/2 7/9/2 10/6/2
f 6/10/1 17/11/1 2/12/1
f 18/4/1 1/3/1 10/2/1
f 5/13/3 20/14/3 12/15/3
f 16/16/4 15/17/4 14/18/4
f 14/19/1 13/20/1 11/21/1
f 12/22/1 19/23/1 11/21/1
f 13/24/4 14/18/4 15/17/4
f 3/25/1 7/26/1 4/27/1
f 5/28/1 2/12/1 20/29/1
f 19/23/1 14/19/1 11/21/1
f 3/25/1 16/30/1 7/26/1
f 3/25/1 15/31/1 16/30/1
f 19/32/3 12/15/3 20/14/3
f 8/33/5 18/34/5 6/35/5
f 17/36/5 6/35/5 18/34/5
f 20/29/1 17/11/1 16/30/1
f 16/30/1 17/11/1 7/26/1
f 10/6/6 7/9/6 17/37/6
f 18/38/6 10/6/6 17/37/6
f 19/32/7 20/14/7 16/16/7
f 16/16/7 14/18/7 19/32/7
f 17/11/1 20/29/1 2/12/1
