# Blender 4.3.2
# www.blender.org
o Tile2020
v 7.500000 -7.500000 7.500000
v -7.500000 7.500000 7.500000
v 0.000000 7.500000 7.500000
v 0.000000 -7.500000 7.500000
v 7.500000 0.000000 7.500000
v 1.191679 5.019558 7.500000
v 7.500000 0.000000 -1.125000
v 0.000000 7.500000 -1.125000
v 1.191679 5.019558 -1.125000
v 0.000000 -7.500000 -1.125000
v -7.500000 0.000000 -1.125000
v -2.023756 1.654742 -1.125000
v -7.500000 0.000000 7.500000
v -2.023756 1.654742 7.500000
v 2.373806 1.171612 7.500000
v 2.373806 1.171612 -1.125000
v -0.222634 -1.703956 -1.125000
v -0.222634 -1.703956 7.500000
v 2.434686 -3.861228 8.205196
v 5.304451 -1.800879 7.359731
v -3.372820 4.835466 9.011771
v -3.732553 7.500000 7.500000
vn 0.9014 0.4330 -0.0000
vn -0.0139 -0.0608 0.9981
vn -0.9993 -0.0384 -0.0000
vn 0.2893 -0.9573 -0.0000
vn -0.0000 0.4935 0.8698
vn -0.2642 -0.0101 0.9644
vn -0.5734 -0.5372 0.6186
vn -0.0000 -0.0000 1.0000
vn 0.2228 0.9749 -0.0000
vn 0.9559 0.2937 -0.0000
vn -0.8813 -0.4726 -0.0000
vn 0.1871 0.1385 0.9725
vn -0.0638 -0.0000 0.9980
vn -0.0000 -0.1903 0.9817
vn 0.2108 0.1051 0.9719
vn 0.3110 -0.2972 0.9028
vn -0.1500 0.1354 0.9794
vn 0.3057 0.1468 0.9408
vt 0.404539 0.833894
vt 0.404539 0.912010
vt 0.159015 0.912010
vt 0.159015 0.833894
vt 0.247802 0.949927
vt 0.220684 0.814451
vt 0.323378 0.878981
vt 0.167533 0.877287
vt 0.167533 0.730838
vt 0.391029 0.877287
vt 0.212583 0.691843
vt 0.358911 0.691843
vt 0.212583 0.912456
vt 0.358911 0.912456
vt 0.061507 0.550603
vt 0.089500 0.659843
vt 0.058821 0.649555
vt 0.450137 0.758285
vt 0.363893 0.841164
vt 0.298062 0.748305
vt 0.211129 0.698604
vt 0.258495 0.555949
vt 0.391029 0.730838
vt 0.404539 0.635394
vt 0.404539 0.719625
vt 0.159015 0.635394
vt 0.159015 0.719625
vt 0.120459 0.780659
vt 0.167533 0.634613
vt 0.391029 0.634613
vt 0.444790 0.955273
vt 0.056160 0.747591
s 0
f 9/1/1 8/2/1 3/3/1
f 3/3/1 6/4/1 9/1/1
f 5/5/2 15/6/2 20/7/2
f 4/8/3 18/9/3 10/10/3
f 14/11/4 13/12/4 12/13/4
f 11/14/4 12/13/4 13/12/4
f 2/15/5 21/16/5 22/17/5
f 4/18/6 19/19/6 18/20/6
f 2/15/7 14/21/7 21/16/7
f 2/15/8 13/22/8 14/21/8
f 17/23/3 10/10/3 18/9/3
f 7/24/9 16/25/9 5/26/9
f 15/27/9 5/26/9 16/25/9
f 18/20/8 15/6/8 14/21/8
f 14/21/8 15/6/8 6/28/8
f 9/1/10 6/4/10 15/27/10
f 16/25/10 9/1/10 15/27/10
f 17/23/11 18/9/11 14/29/11
f 14/29/11 12/30/11 17/23/11
f 15/6/12 19/19/12 20/7/12
f 20/7/13 1/31/13 5/5/13
f 19/19/14 4/18/14 1/31/14
f 20/7/15 19/19/15 1/31/15
f 21/16/16 14/21/16 6/28/16
f 21/16/5 3/32/5 22/17/5
f 15/6/17 18/20/17 19/19/17
f 21/16/18 6/28/18 3/32/18
