# Blender 4.3.2
# www.blender.org
o Tile2020
v 5.000000 -5.000000 5.000000
v -5.000000 5.000000 5.000000
v 0.000000 5.000000 5.000000
v 0.000000 -5.000000 5.000000
v 5.000000 0.000000 5.000000
v 0.794452 3.346372 5.000000
v 5.000000 0.000000 -0.750000
v 0.000000 5.000000 -0.750000
v 0.794452 3.346372 -0.750000
v 0.000000 -5.000000 -0.750000
v -5.000000 0.000000 -0.750000
v -1.349171 1.103161 -0.750000
v -5.000000 0.000000 5.000000
v -1.349171 1.103161 5.000000
v 1.582537 0.781075 5.000000
v 1.582537 0.781075 -0.750000
v -0.148422 -1.135971 -0.750000
v -0.148422 -1.135971 5.000000
v 1.623124 -2.574152 5.470131
v 3.536301 -1.200586 4.906487
v -2.248547 3.223644 6.007847
v -2.488369 5.000000 5.000000
vn 0.9014 0.4330 -0.0000
vn -0.0139 -0.0608 0.9981
vn -0.9993 -0.0384 -0.0000
vn 0.2893 -0.9573 -0.0000
vn -0.0000 0.4935 0.8698
vn -0.2642 -0.0101 0.9644
vn -0.5734 -0.5372 0.6186
vn -0.0000 -0.0000 1.0000
vn 0.2228 0.9749 -0.0000
vn 0.9559 0.2937 -0.0000
vn -0.8813 -0.4726 -0.0000
vn 0.1871 0.1385 0.9725
vn -0.0638 -0.0000 0.9980
vn -0.0000 -0.1903 0.9817
vn 0.2108 0.1051 0.9719
vn 0.3110 -0.2972 0.9028
vn -0.1500 0.1354 0.9794
vn 0.3057 0.1468 0.9408
vt 0.946513 0.728674
vt 0.946513 0.838649
vt 0.600855 0.838649
vt 0.600855 0.728674
vt 0.043424 0.742624
vt 0.167608 0.544857
vt 0.218626 0.743405
vt 0.596948 0.803810
vt 0.596949 0.577314
vt 0.942607 0.803810
vt 0.665263 0.515625
vt 0.894531 0.515625
vt 0.665263 0.861283
vt 0.894531 0.861283
vt 0.278943 0.036066
vt 0.186326 0.202657
vt 0.160636 0.154374
vt 0.514462 0.742624
vt 0.312299 0.744088
vt 0.339443 0.553622
vt 0.290531 0.391591
vt 0.514462 0.271586
vt 0.942607 0.577314
vt 0.946513 0.449219
vt 0.946513 0.567802
vt 0.600855 0.449219
vt 0.600855 0.567802
vt 0.083894 0.386900
vt 0.596949 0.428493
vt 0.942607 0.428493
vt 0.278943 0.978143
vt 0.043424 0.271586
s 0
f 9/1/1 8/2/1 3/3/1
f 3/3/1 6/4/1 9/1/1
f 5/5/2 15/6/2 20/7/2
f 4/8/3 18/9/3 10/10/3
f 14/11/4 13/12/4 12/13/4
f 11/14/4 12/13/4 13/12/4
f 2/15/5 21/16/5 22/17/5
f 4/18/6 19/19/6 18/20/6
f 2/15/7 14/21/7 21/16/7
f 2/15/8 13/22/8 14/21/8
f 17/23/3 10/10/3 18/9/3
f 7/24/9 16/25/9 5/26/9
f 15/27/9 5/26/9 16/25/9
f 18/20/8 15/6/8 14/21/8
f 14/21/8 15/6/8 6/28/8
f 9/1/10 6/4/10 15/27/10
f 16/25/10 9/1/10 15/27/10
f 17/23/11 18/9/11 14/29/11
f 14/29/11 12/30/11 17/23/11
f 15/6/12 19/19/12 20/7/12
f 20/7/13 1/31/13 5/5/13
f 19/19/14 4/18/14 1/31/14
f 20/7/15 19/19/15 1/31/15
f 21/16/16 14/21/16 6/28/16
f 21/16/5 3/32/5 22/17/5
f 15/6/17 18/20/17 19/19/17
f 21/16/18 6/28/18 3/32/18
