# Blender 4.3.2
# www.blender.org
o Tile2002
v -5.000000 5.000000 5.000000
v -5.000000 -5.000000 5.000000
v 0.000000 5.000000 5.000000
v 0.000000 -5.000000 5.000000
v 0.000000 -5.000000 -0.750000
v 0.000000 5.000000 -0.750000
v -0.654030 -2.355791 5.000000
v -0.654030 -2.355791 -0.750000
v -2.800297 -3.305536 5.533297
v -1.577021 2.464459 4.372915
v -2.695311 1.537704 5.678668
v -5.000000 -0.357885 5.000000
v -0.488216 -0.490900 4.175492
v -1.831952 -0.885841 5.139099
v -5.000000 -2.061397 5.000000
vn 0.9707 0.2401 -0.0000
vn -0.2825 -0.0000 0.9593
vn 0.2182 0.0540 0.9744
vn 0.8643 0.2910 0.4101
vn -0.0000 -0.3002 0.9539
vn 0.2090 0.0752 0.9750
vn -0.0832 -0.2447 0.9660
vn 0.4811 0.4658 0.7427
vn -0.1190 0.2059 0.9713
vn 0.5779 0.0242 0.8158
vn 0.9961 -0.0886 -0.0000
vn 0.8492 -0.5281 -0.0000
vn 0.4899 0.3157 0.8126
vn -0.0439 -0.0000 0.9990
vn -0.0000 -0.2401 0.9708
vn -0.2356 -0.0000 0.9718
vn 0.6700 0.1991 0.7151
vt 0.556881 0.385231
vt 0.938940 0.206717
vt 0.938940 0.385231
vt 0.054110 0.950374
vt 0.054110 0.468055
vt 0.197055 0.524074
vt 0.504212 0.050170
vt 0.445336 0.288203
vt 0.304815 0.202707
vt 0.938940 0.869204
vt 0.556881 0.637478
vt 0.556881 0.507931
vt 0.054110 0.050170
vt 0.269048 0.309375
vt 0.476022 0.633327
vt 0.054110 0.314704
vt 0.460262 0.456081
vt 0.556881 0.206717
vt 0.556881 0.869204
vt 0.504212 0.950374
s 0
f 7/1/1 5/2/1 8/3/1
f 1/4/2 12/5/2 11/6/2
f 4/7/3 7/8/3 9/9/3
f 6/10/4 10/11/4 13/12/4
f 9/9/5 2/13/5 4/7/5
f 7/8/6 14/14/6 9/9/6
f 12/5/7 14/14/7 11/6/7
f 10/15/8 1/4/8 11/6/8
f 15/16/9 9/9/9 14/14/9
f 13/17/10 11/6/10 14/14/10
f 7/1/1 4/18/1 5/2/1
f 7/1/11 8/3/11 6/10/11
f 6/10/12 3/19/12 10/11/12
f 13/12/11 7/1/11 6/10/11
f 7/8/13 13/17/13 14/14/13
f 12/5/14 15/16/14 14/14/14
f 10/15/15 3/20/15 1/4/15
f 15/16/16 2/13/16 9/9/16
f 13/17/17 10/15/17 11/6/17
