# Blender 4.3.2
# www.blender.org
o Tile1001
v -5.000000 5.000000 0.000000
v -5.000000 -5.000000 0.000000
v 0.000000 5.000000 0.000000
v 0.000000 -5.000000 0.000000
v 0.000000 -5.000000 -0.750000
v 5.000000 -5.000000 -0.750000
v 5.000000 5.000000 -0.750000
v 0.000000 5.000000 -0.750000
vn -0.0000 -0.0000 1.0000
vn 1.0000 -0.0000 -0.0000
vt 0.103866 0.170949
vt 0.494532 0.170949
vt 0.103866 0.366282
vt 0.494532 0.366282
vt 0.106231 0.757936
vt 0.361982 0.713179
vt 0.361982 0.757936
vt 0.945849 0.658569
vt 0.555183 0.853902
vt 0.555183 0.658569
vt 0.945849 0.853902
vt 0.106231 0.713179
s 0
f 4/1/1 3/2/1 2/3/1
f 3/2/1 1/4/1 2/3/1
f 8/5/2 4/6/2 5/7/2
f 5/8/1 7/9/1 8/10/1
f 7/9/1 5/8/1 6/11/1
f 3/12/2 4/6/2 8/5/2
