# Blender 4.3.2
# www.blender.org
o Tile1000
v -7.500000 7.500000 0.000000
v -7.500000 -7.500000 -1.125000
v 7.500000 7.500000 -1.125000
v 7.500000 -7.500000 -1.125000
v -7.500000 0.000000 0.000000
v 0.000000 7.500000 0.000000
v 1.232673 3.299063 0.000000
v -7.500000 0.000000 -1.125000
v 0.000000 7.500000 -1.125000
v 1.232673 3.299063 -1.125000
v 0.161347 -0.356994 0.000000
v 0.161347 -0.356994 -1.125000
v -3.638111 -0.777659 0.000000
v -3.638111 -0.777659 -1.125000
v -3.098082 5.382415 0.000000
vn -0.0000 -0.0000 1.0000
vn 0.9596 -0.2812 -0.0000
vn 0.9595 0.2816 -0.0000
vn -0.1974 -0.9803 -0.0000
vn 0.1100 -0.9939 -0.0000
vt 0.131787 0.238135
vt 0.281209 0.322992
vt 0.186026 0.350883
vt 0.081209 0.727839
vt 0.111150 0.633781
vt 0.111150 0.727839
vt 0.111150 0.842306
vt 0.271915 0.123535
vt 0.076658 0.123535
vt 0.550138 0.570390
vt 0.745395 0.570390
vt 0.713304 0.679758
vt 0.173242 0.635318
vt 0.143777 0.737265
vt 0.143777 0.635318
vt 0.550138 0.960904
vt 0.076658 0.318792
vt 0.173242 0.737265
vt 0.143777 0.836191
vt 0.081209 0.842306
vt 0.940652 0.765647
vt 0.940652 0.960904
vt 0.840111 0.785893
vt 0.741195 0.774941
vt 0.292160 0.224076
vt 0.081209 0.633781
vt 0.173242 0.836191
s 0
f 15/1/1 11/2/1 7/3/1
f 7/4/2 12/5/2 10/6/2
f 10/6/3 9/7/3 7/4/3
f 5/8/1 15/1/1 1/9/1
f 3/10/1 9/11/1 10/12/1
f 8/13/4 13/14/4 5/15/4
f 10/12/1 4/16/1 3/10/1
f 6/17/1 15/1/1 7/3/1
f 14/18/5 11/19/5 13/14/5
f 6/20/3 7/4/3 9/7/3
f 8/21/1 2/22/1 14/23/1
f 2/22/1 4/16/1 14/23/1
f 14/23/1 4/16/1 12/24/1
f 4/16/1 10/12/1 12/24/1
f 15/1/1 13/25/1 11/2/1
f 7/4/2 11/26/2 12/5/2
f 5/8/1 13/25/1 15/1/1
f 8/13/4 14/18/4 13/14/4
f 6/17/1 1/9/1 15/1/1
f 14/18/5 12/27/5 11/19/5
