# Blender 4.3.2
# www.blender.org
o Tile1001
v -5.000000 5.000000 0.000000
v -5.000000 -5.000000 0.000000
v 0.000000 5.000000 0.000000
v 0.000000 -5.000000 0.000000
v 0.000000 -5.000000 -0.750000
v 5.000000 -5.000000 -0.750000
v 5.000000 5.000000 -0.750000
v 0.000000 5.000000 -0.750000
vn -0.0000 -0.0000 1.0000
vn 1.0000 -0.0000 -0.0000
vt 0.436231 0.247218
vt 0.436231 0.938512
vt 0.090584 0.247218
vt 0.090584 0.938512
vt 0.165334 0.180883
vt 0.856627 0.059906
vt 0.856627 0.180883
vt 0.560911 0.247218
vt 0.906557 0.938512
vt 0.560910 0.938512
vt 0.906557 0.247218
vt 0.165334 0.059907
s 0
f 4/1/1 3/2/1 2/3/1
f 3/2/1 1/4/1 2/3/1
f 8/5/2 4/6/2 5/7/2
f 5/8/1 7/9/1 8/10/1
f 7/9/1 5/8/1 6/11/1
f 3/12/2 4/6/2 8/5/2
