# Blender 4.3.2
# www.blender.org
o Tile1010
v 5.000000 5.000000 -0.750000
v 5.000000 -5.000000 0.000000
v -5.000000 5.000000 0.000000
v 0.000000 5.000000 0.000000
v 0.000000 -5.000000 0.000000
v 5.000000 0.000000 0.000000
v 0.821539 1.465524 0.000000
v 5.000000 0.000000 -0.750000
v 0.000000 5.000000 -0.750000
v 0.821539 1.465524 -0.750000
v -5.000000 -5.000000 -0.750000
v 0.000000 -5.000000 -0.750000
v -5.000000 0.000000 -0.750000
v -1.803442 -0.605199 -0.750000
v -5.000000 0.000000 0.000000
v -1.803442 -0.605199 0.000000
v 1.098952 0.465908 0.000000
v 1.098952 0.465908 -0.750000
v -1.494653 -1.550056 -0.750000
v -1.494653 -1.550056 0.000000
vn -0.0000 -0.0000 1.0000
vn 0.9740 0.2264 -0.0000
vn -0.9176 -0.3975 -0.0000
vn -0.1860 -0.9825 -0.0000
vn 0.1186 0.9929 -0.0000
vn 0.9636 0.2674 -0.0000
vn -0.9505 -0.3106 -0.0000
vt 0.819524 0.046627
vt 0.766850 0.273246
vt 0.498941 0.046627
vt 0.749063 0.337338
vt 0.498941 0.367210
vt 0.961258 0.507436
vt 0.961258 0.740044
vt 0.849054 0.740044
vt 0.849054 0.507436
vt 0.016039 0.724226
vt 0.171779 0.526240
vt 0.242726 0.950912
vt 0.849054 0.413868
vt 0.849054 0.278561
vt 0.961258 0.413868
vt 0.849054 0.247838
vt 0.849054 0.039245
vt 0.961258 0.247838
vt 0.515598 0.616457
vt 0.476794 0.411504
vt 0.797377 0.411504
vt 0.797377 0.732087
vt 0.576179 0.636255
vt 0.961258 0.039245
vt 0.242726 0.044166
vt 0.139036 0.468343
vt 0.016039 0.270853
vt 0.469412 0.724226
vt 0.380764 0.500051
vt 0.351927 0.443214
vt 0.469412 0.270853
vt 0.961258 0.278561
vt 0.611145 0.687793
vt 0.611145 0.939692
vt 0.498941 0.687793
vt 0.498941 0.939692
vt 0.849054 0.440937
vt 0.961258 0.440937
s 0
f 9/1/1 10/2/1 1/3/1
f 18/4/1 8/5/1 1/3/1
f 10/6/2 9/7/2 4/8/2
f 4/8/2 7/9/2 10/6/2
f 6/10/1 17/11/1 2/12/1
f 18/4/1 1/3/1 10/2/1
f 5/13/3 20/14/3 12/15/3
f 16/16/4 15/17/4 14/18/4
f 14/19/1 13/20/1 11/21/1
f 12/22/1 19/23/1 11/21/1
f 13/24/4 14/18/4 15/17/4
f 3/25/1 7/26/1 4/27/1
f 5/28/1 2/12/1 20/29/1
f 19/23/1 14/19/1 11/21/1
f 3/25/1 16/30/1 7/26/1
f 3/25/1 15/31/1 16/30/1
f 19/32/3 12/15/3 20/14/3
f 8/33/5 18/34/5 6/35/5
f 17/36/5 6/35/5 18/34/5
f 20/29/1 17/11/1 16/30/1
f 16/30/1 17/11/1 7/26/1
f 10/6/6 7/9/6 17/37/6
f 18/38/6 10/6/6 17/37/6
f 19/32/7 20/14/7 16/16/7
f 16/16/7 14/18/7 19/32/7
f 17/11/1 20/29/1 2/12/1
