# Blender 4.3.2
# www.blender.org
o Tile1101
v 5.000000 -5.000000 -0.750000
v -5.000000 -5.000000 0.000000
v 5.000000 5.000000 0.000000
v -5.000000 5.000000 0.000000
v 5.000000 0.000000 0.000000
v -5.000000 0.000000 0.000000
v 0.000000 5.000000 0.000000
v 0.000000 -5.000000 0.000000
v 0.774437 -1.059492 0.000000
v 0.000000 -5.000000 -0.750000
v 5.000000 0.000000 -0.750000
v 0.774437 -1.059492 -0.750000
vn -0.0000 -0.0000 1.0000
vn 0.9812 -0.1928 -0.0000
vn 0.2432 -0.9700 -0.0000
vt 0.854072 0.869363
vt 0.689369 0.828412
vt 0.853688 0.674571
vt 0.428842 0.271109
vt 0.428842 0.465902
vt 0.264220 0.229832
vt 0.658895 0.674955
vt 0.261684 0.750311
vt 0.208383 0.750311
vt 0.208383 0.627994
vt 0.261684 0.806795
vt 0.208383 0.806795
vt 0.234049 0.465902
vt 0.039256 0.465902
vt 0.039256 0.271109
vt 0.039256 0.076316
vt 0.234049 0.076316
vt 0.261684 0.627994
s 0
f 11/1/1 12/2/1 1/3/1
f 5/4/1 3/5/1 9/6/1
f 10/7/1 1/3/1 12/2/1
f 12/8/2 9/9/2 8/10/2
f 12/8/3 11/11/3 5/12/3
f 7/13/1 9/6/1 3/5/1
f 4/14/1 9/6/1 7/13/1
f 4/14/1 6/15/1 9/6/1
f 6/15/1 2/16/1 9/6/1
f 2/16/1 8/17/1 9/6/1
f 5/12/3 9/9/3 12/8/3
f 8/10/2 10/18/2 12/8/2
