# Blender 4.3.2
# www.blender.org
o Tile2002
v -7.500000 7.500000 7.500000
v -7.500000 -7.500000 7.500000
v 0.000000 7.500000 7.500000
v 0.000000 -7.500000 7.500000
v 0.000000 -7.500000 -1.125000
v 0.000000 7.500000 -1.125000
v -0.981045 -3.533686 7.500000
v -0.981045 -3.533686 -1.125000
v -4.200446 -4.958304 8.299946
v -2.365531 3.696688 6.559373
v -4.042967 2.306557 8.518002
v -7.500000 -0.536828 7.500000
v -0.732324 -0.736350 6.263238
v -2.747929 -1.328761 7.708648
v -7.500000 -3.092096 7.500000
vn 0.9707 0.2401 -0.0000
vn -0.2825 -0.0000 0.9593
vn 0.2182 0.0540 0.9744
vn 0.8643 0.2910 0.4101
vn -0.0000 -0.3002 0.9539
vn 0.2090 0.0752 0.9750
vn -0.0832 -0.2447 0.9660
vn 0.4811 0.4658 0.7427
vn -0.1190 0.2059 0.9713
vn 0.5779 0.0242 0.8158
vn 0.9961 -0.0886 -0.0000
vn 0.8492 -0.5281 -0.0000
vn 0.4899 0.3157 0.8126
vn -0.0439 -0.0000 0.9990
vn -0.0000 -0.2401 0.9708
vn -0.2356 -0.0000 0.9718
vn 0.6700 0.1991 0.7151
vt 0.253170 0.675218
vt 0.467156 0.575235
vt 0.467156 0.675218
vt 0.042471 0.929548
vt 0.042471 0.729356
vt 0.101802 0.752607
vt 0.229291 0.555908
vt 0.204854 0.654706
vt 0.146529 0.619220
vt 0.467156 0.946286
vt 0.253170 0.816499
vt 0.253170 0.743941
vt 0.042471 0.555908
vt 0.131683 0.663494
vt 0.217590 0.797954
vt 0.042471 0.665706
vt 0.211049 0.724386
vt 0.253170 0.575235
vt 0.253170 0.946286
vt 0.229291 0.929548
s 0
f 7/1/1 5/2/1 8/3/1
f 1/4/2 12/5/2 11/6/2
f 4/7/3 7/8/3 9/9/3
f 6/10/4 10/11/4 13/12/4
f 9/9/5 2/13/5 4/7/5
f 7/8/6 14/14/6 9/9/6
f 12/5/7 14/14/7 11/6/7
f 10/15/8 1/4/8 11/6/8
f 15/16/9 9/9/9 14/14/9
f 13/17/10 11/6/10 14/14/10
f 7/1/1 4/18/1 5/2/1
f 7/1/11 8/3/11 6/10/11
f 6/10/12 3/19/12 10/11/12
f 13/12/11 7/1/11 6/10/11
f 7/8/13 13/17/13 14/14/13
f 12/5/14 15/16/14 14/14/14
f 10/15/15 3/20/15 1/4/15
f 15/16/16 2/13/16 9/9/16
f 13/17/17 10/15/17 11/6/17
