# Blender 4.3.2
# www.blender.org
o Tile2000
v -5.000000 5.000000 5.000000
v -5.000000 0.000000 5.000000
v 0.000000 5.000000 5.000000
v -1.375946 3.044510 5.000000
v -5.000000 0.000000 -0.750000
v 0.000000 5.000000 -0.750000
v -0.637352 3.044510 -0.750000
v -0.780991 0.642805 5.000000
v -0.780991 0.642805 -0.750000
v -3.528109 1.870197 5.000000
v -2.996320 0.254637 -0.750000
v -3.079446 3.588277 6.109934
vn 0.3119 -0.5717 0.7588
vn 0.9982 -0.0597 -0.0000
vn 0.9438 -0.3076 0.1212
vn -0.6321 -0.2973 0.7156
vn 0.7630 -0.6005 0.2393
vn 0.4460 -0.3138 0.8382
vn -0.3985 -0.8919 0.2137
vn 0.8178 -0.5755 -0.0000
vn -0.0000 -0.0000 1.0000
vn 0.9632 0.2386 0.1237
vn 0.1261 -0.9920 -0.0000
vn -0.0000 0.6181 0.7861
vn 0.1726 -0.9850 -0.0000
vt 0.257255 0.743229
vt 0.173962 0.644721
vt 0.224385 0.625521
vt 0.127753 0.946834
vt 0.219692 0.723882
vt 0.219692 0.946834
vt 0.048291 0.946834
vt 0.127753 0.723882
vt 0.328003 0.575675
vt 0.448514 0.709947
vt 0.366990 0.942096
vt 0.366990 0.709947
vt 0.151458 0.575675
vt 0.276212 0.709947
vt 0.048291 0.723882
vt 0.179034 0.729523
vt 0.328003 0.752220
vt 0.448514 0.942096
vt 0.276212 0.942096
s 0
f 10/1/1 4/2/1 12/3/1
f 7/4/2 8/5/2 9/6/2
f 7/4/3 6/7/3 4/8/3
f 1/9/4 10/1/4 12/3/4
f 2/10/5 11/11/5 10/12/5
f 3/13/6 12/3/6 4/2/6
f 11/11/7 8/14/7 10/12/7
f 3/15/8 4/8/8 6/7/8
f 10/1/9 8/16/9 4/2/9
f 7/4/10 4/8/10 8/5/10
f 1/9/9 2/17/9 10/1/9
f 2/10/11 5/18/11 11/11/11
f 3/13/12 1/9/12 12/3/12
f 11/11/13 9/19/13 8/14/13
