# Blender 4.4.3
# www.blender.org
mtllib Table.mtl
o Plane
v 25.000000 0.000000 -25.000000
v -475.000000 0.000000 -25.000000
v 25.000000 0.000000 625.000000
v 25.000000 26.718327 625.000000
v 39.549374 26.718327 643.914185
v -475.000000 0.000000 625.000000
v 39.549374 0.000000 -43.914177
v -489.549347 0.000000 -43.914177
v 39.549374 0.000000 643.914185
v -475.000000 26.718327 625.000000
v -489.549347 26.718327 -43.914177
v -475.000000 26.718327 -25.000000
v 39.549374 26.718327 -43.914177
v 25.000000 26.718327 -25.000000
v -489.549347 26.718327 643.914185
v -489.549347 0.000000 643.914185
vn -0.3015 -0.9045 0.3015
vn 0.3015 -0.9045 0.3015
vn -0.3015 -0.9045 -0.3015
vn -0.3015 0.9045 -0.3015
vn 0.5773 0.5774 0.5773
vn 0.3015 -0.9045 -0.3015
vn 0.5773 -0.5774 -0.5773
vn -0.5773 -0.5774 -0.5773
vn 0.5773 -0.5774 0.5773
vn 0.3015 0.9045 -0.3015
vn -0.5773 0.5774 -0.5773
vn 0.3015 0.9045 0.3015
vn 0.5773 0.5774 -0.5773
vn -0.3015 0.9045 0.3015
vn -0.5773 0.5774 0.5773
vn -0.5773 -0.5774 0.5773
vt 1.000000 0.000000
vt 1.000000 1.000000
vt 0.000000 0.000000
vt 0.000000 1.000000
s 1
f 8/1/8 16/2/16 15/2/15 11/1/11
f 14/3/14 13/3/13 11/1/11 12/1/12
f 13/3/13 14/3/14 4/4/4 5/4/5
f 4/4/4 10/2/10 15/2/15 5/4/5
f 7/3/7 8/1/8 11/1/11 13/3/13
f 6/2/6 2/1/2 12/1/12 10/2/10
f 16/2/16 9/4/9 5/4/5 15/2/15
f 3/4/3 9/4/9 16/2/16 6/2/6
f 3/4/3 6/2/6 10/2/10 4/4/4
f 1/3/1 3/4/3 4/4/4 14/3/14
f 7/3/7 9/4/9 3/4/3 1/3/1
f 2/1/2 1/3/1 14/3/14 12/1/12
f 1/3/1 2/1/2 8/1/8 7/3/7
f 9/4/9 7/3/7 13/3/13 5/4/5
f 10/2/10 12/1/12 11/1/11 15/2/15
f 6/2/6 16/2/16 8/1/8 2/1/2
