# Blender 4.4.3
# www.blender.org
o Torus
v -1.115284 0.000000 -0.000000
v -0.985029 0.196691 -0.000000
v -0.774271 0.121562 -0.000000
v -0.774271 -0.121562 -0.000000
v -0.985029 -0.196691 -0.000000
v -0.788625 0.000000 0.788625
v -0.696520 0.196691 0.696521
v -0.547492 0.121562 0.547492
v -0.547492 -0.121562 0.547492
v -0.696520 -0.196691 0.696521
v -0.000000 0.000000 1.115284
v -0.000000 0.196691 0.985029
v -0.000000 0.121562 0.774271
v -0.000000 -0.121562 0.774271
v -0.000000 -0.196691 0.985029
v 0.788625 0.000000 0.788625
v 0.696521 0.196691 0.696520
v 0.547492 0.121562 0.547492
v 0.547492 -0.121562 0.547492
v 0.696521 -0.196691 0.696520
v 1.115284 0.000000 0.000000
v 0.985029 0.196691 0.000000
v 0.774271 0.121562 0.000000
v 0.774271 -0.121562 0.000000
v 0.985029 -0.196691 0.000000
v 0.788625 0.000000 -0.788625
v 0.696521 0.196691 -0.696520
v 0.547492 0.121562 -0.547492
v 0.547492 -0.121562 -0.547492
v 0.696521 -0.196691 -0.696520
v 0.000000 0.000000 -1.115284
v 0.000000 0.196691 -0.985029
v 0.000000 0.121562 -0.774271
v 0.000000 -0.121562 -0.774271
v 0.000000 -0.196691 -0.985029
v -0.788625 0.000000 -0.788626
v -0.696520 0.196691 -0.696521
v -0.547492 0.121562 -0.547492
v -0.547492 -0.121562 -0.547492
v -0.696520 -0.196691 -0.696521
vn -1.0000 -0.0000 -0.0000
vn -0.4401 0.8979 -0.0000
vn 0.7570 0.6534 -0.0000
vn 0.7570 -0.6534 -0.0000
vn -0.4401 -0.8979 -0.0000
vn -0.7071 -0.0000 0.7071
vn -0.3112 0.8979 0.3112
vn 0.5353 0.6534 -0.5353
vn 0.5353 -0.6534 -0.5353
vn -0.3112 -0.8979 0.3112
vn -0.0000 -0.0000 1.0000
vn -0.0000 0.8979 0.4401
vn -0.0000 0.6534 -0.7570
vn -0.0000 -0.6534 -0.7570
vn -0.0000 -0.8979 0.4401
vn 0.7071 -0.0000 0.7071
vn 0.3112 0.8979 0.3112
vn -0.5353 0.6534 -0.5353
vn -0.5353 -0.6534 -0.5353
vn 0.3112 -0.8979 0.3112
vn 1.0000 -0.0000 -0.0000
vn 0.4401 0.8979 -0.0000
vn -0.7570 0.6534 -0.0000
vn -0.7570 -0.6534 -0.0000
vn 0.4401 -0.8979 -0.0000
vn 0.7071 -0.0000 -0.7071
vn 0.3112 0.8979 -0.3112
vn -0.5353 0.6534 0.5353
vn -0.5353 -0.6534 0.5353
vn 0.3112 -0.8979 -0.3112
vn -0.0000 -0.0000 -1.0000
vn -0.0000 0.8979 -0.4401
vn -0.0000 0.6534 0.7570
vn -0.0000 -0.6534 0.7570
vn -0.0000 -0.8979 -0.4401
vn -0.7071 -0.0000 -0.7071
vn -0.3112 0.8979 -0.3112
vn 0.5353 0.6534 0.5353
vn 0.5353 -0.6534 0.5353
vn -0.3112 -0.8979 -0.3112
vt 0.625000 0.600000
vt 0.500000 0.800000
vt 0.500000 0.600000
vt 0.625000 0.800000
vt 0.500000 1.000000
vt 0.625000 0.000000
vt 0.500000 0.200000
vt 0.500000 0.000000
vt 0.625000 0.200000
vt 0.500000 0.400000
vt 0.750000 0.600000
vt 0.750000 0.800000
vt 0.625000 1.000000
vt 0.750000 0.000000
vt 0.750000 0.400000
vt 0.625000 0.400000
vt 0.875000 0.600000
vt 0.875000 0.800000
vt 0.750000 1.000000
vt 0.875000 0.200000
vt 0.750000 0.200000
vt 0.875000 0.400000
vt 1.000000 0.600000
vt 1.000000 1.000000
vt 0.875000 1.000000
vt 1.000000 0.000000
vt 0.875000 0.000000
vt 1.000000 0.200000
vt 1.000000 0.400000
vt 0.125000 0.600000
vt 0.000000 0.800000
vt 0.000000 0.600000
vt 0.125000 0.800000
vt 0.000000 1.000000
vt 0.125000 0.000000
vt 0.000000 0.200000
vt 0.000000 0.000000
vt 0.125000 0.200000
vt 0.000000 0.400000
vt 0.250000 0.600000
vt 0.250000 1.000000
vt 0.125000 1.000000
vt 0.250000 0.000000
vt 0.250000 0.200000
vt 0.125000 0.400000
vt 0.250000 0.400000
vt 0.375000 0.600000
vt 0.250000 0.800000
vt 0.375000 0.800000
vt 0.375000 0.000000
vt 0.375000 0.200000
vt 0.375000 0.400000
vt 0.375000 1.000000
vt 1.000000 0.800000
s 1
f 6/1/6 2/2/2 1/3/1
f 7/4/7 3/5/3 2/2/2
f 8/6/8 4/7/4 3/8/3
f 9/9/9 5/10/5 4/7/4
f 5/10/5 6/1/6 1/3/1
f 11/11/11 7/4/7 6/1/6
f 12/12/12 8/13/8 7/4/7
f 13/14/13 9/9/9 8/6/8
f 9/9/9 15/15/15 10/16/10
f 15/15/15 6/1/6 10/16/10
f 16/17/16 12/12/12 11/11/11
f 17/18/17 13/19/13 12/12/12
f 13/14/13 19/20/19 14/21/14
f 19/20/19 15/15/15 14/21/14
f 20/22/20 11/11/11 15/15/15
f 21/23/21 17/18/17 16/17/16
f 17/18/17 23/24/23 18/25/18
f 23/26/23 19/20/19 18/27/18
f 24/28/24 20/22/20 19/20/19
f 25/29/25 16/17/16 20/22/20
f 26/30/26 22/31/22 21/32/21
f 27/33/27 23/34/23 22/31/22
f 28/35/28 24/36/24 23/37/23
f 29/38/29 25/39/25 24/36/24
f 25/39/25 26/30/26 21/32/21
f 31/40/31 27/33/27 26/30/26
f 27/33/27 33/41/33 28/42/28
f 33/43/33 29/38/29 28/35/28
f 34/44/34 30/45/30 29/38/29
f 35/46/35 26/30/26 30/45/30
f 36/47/36 32/48/32 31/40/31
f 37/49/37 33/41/33 32/48/32
f 38/50/38 34/44/34 33/43/33
f 39/51/39 35/46/35 34/44/34
f 40/52/40 31/40/31 35/46/35
f 1/3/1 37/49/37 36/47/36
f 2/2/2 38/53/38 37/49/37
f 3/8/3 39/51/39 38/50/38
f 39/51/39 5/10/5 40/52/40
f 5/10/5 36/47/36 40/52/40
f 6/1/6 7/4/7 2/2/2
f 7/4/7 8/13/8 3/5/3
f 8/6/8 9/9/9 4/7/4
f 9/9/9 10/16/10 5/10/5
f 5/10/5 10/16/10 6/1/6
f 11/11/11 12/12/12 7/4/7
f 12/12/12 13/19/13 8/13/8
f 13/14/13 14/21/14 9/9/9
f 9/9/9 14/21/14 15/15/15
f 15/15/15 11/11/11 6/1/6
f 16/17/16 17/18/17 12/12/12
f 17/18/17 18/25/18 13/19/13
f 13/14/13 18/27/18 19/20/19
f 19/20/19 20/22/20 15/15/15
f 20/22/20 16/17/16 11/11/11
f 21/23/21 22/54/22 17/18/17
f 17/18/17 22/54/22 23/24/23
f 23/26/23 24/28/24 19/20/19
f 24/28/24 25/29/25 20/22/20
f 25/29/25 21/23/21 16/17/16
f 26/30/26 27/33/27 22/31/22
f 27/33/27 28/42/28 23/34/23
f 28/35/28 29/38/29 24/36/24
f 29/38/29 30/45/30 25/39/25
f 25/39/25 30/45/30 26/30/26
f 31/40/31 32/48/32 27/33/27
f 27/33/27 32/48/32 33/41/33
f 33/43/33 34/44/34 29/38/29
f 34/44/34 35/46/35 30/45/30
f 35/46/35 31/40/31 26/30/26
f 36/47/36 37/49/37 32/48/32
f 37/49/37 38/53/38 33/41/33
f 38/50/38 39/51/39 34/44/34
f 39/51/39 40/52/40 35/46/35
f 40/52/40 36/47/36 31/40/31
f 1/3/1 2/2/2 37/49/37
f 2/2/2 3/5/3 38/53/38
f 3/8/3 4/7/4 39/51/39
f 39/51/39 4/7/4 5/10/5
f 5/10/5 1/3/1 36/47/36
