# Blender 4.3.2
# www.blender.org
o Tree01
v -0.160993 0.125950 0.516864
v 0.162715 0.125950 0.533088
v 0.162250 -0.198289 0.530426
v -0.161898 -0.198289 0.514310
v 0.085965 0.087498 0.438558
v 0.085965 -0.087498 0.438558
v -0.085965 -0.087498 0.438558
v -0.085965 0.087498 0.438558
v -0.161195 0.125950 0.941118
v 0.096879 0.125950 0.947665
v 0.096879 -0.174102 0.947665
v -0.161195 -0.174102 0.941118
v -0.085742 0.087271 0.990553
v 0.060532 0.087271 0.984006
v 0.060532 -0.087271 0.984006
v -0.085742 -0.087271 0.990553
v 0.198430 -0.217113 0.729035
v -0.175602 -0.217113 0.745152
v -0.176507 0.179449 0.742598
v 0.197964 0.179449 0.726374
v -0.030930 0.017571 0.000000
v -0.017263 0.031481 -0.000000
v -0.029768 0.016389 0.423716
v -0.043394 0.044168 0.438558
v -0.016102 0.030299 0.423716
v 0.017263 0.031481 0.000000
v 0.030930 0.017571 -0.000000
v 0.043394 0.044168 0.438558
v 0.029768 0.016389 0.423716
v 0.016102 0.030299 0.423716
v -0.017263 -0.031481 0.000000
v -0.030930 -0.017571 -0.000000
v -0.043394 -0.044168 0.438558
v -0.029768 -0.016389 0.423716
v -0.016102 -0.030299 0.423716
v 0.030930 -0.017571 0.000000
v 0.017263 -0.031481 -0.000000
v 0.043394 -0.044168 0.438558
v 0.016102 -0.030299 0.423716
v 0.029768 -0.016389 0.423716
vn -0.8454 -0.2558 -0.4690
vn -0.9261 0.3773 0.0036
vn -0.9261 -0.3773 0.0036
vn -0.0000 -0.0000 -1.0000
vn 0.7718 0.0041 -0.6359
vn -0.0054 -0.9767 0.2148
vn -0.0000 -0.5644 -0.8255
vn -0.0000 0.9263 -0.3768
vn -0.7221 -0.0000 -0.6918
vn 0.8454 0.2558 -0.4690
vn 0.9261 -0.3773 0.0036
vn 0.9261 0.3773 0.0036
vn 0.2633 -0.8400 -0.4743
vn -0.3888 -0.9213 0.0036
vn 0.3889 -0.9213 0.0036
vn -0.0222 -0.4800 0.8770
vn 0.0104 0.9709 0.2394
vn -0.9971 -0.0018 0.0764
vn 0.9069 -0.0000 0.4213
vn 0.0447 -0.0000 0.9990
vn 0.0333 0.6676 0.7438
vn -0.5480 -0.0000 0.8365
vn 0.7071 -0.0000 0.7072
vn 0.9838 0.0001 -0.1792
vn -0.9977 -0.0027 -0.0679
vn -0.0115 0.9642 -0.2648
vn 0.0040 -0.9967 -0.0810
vn -0.8454 0.2558 -0.4690
vn -0.3957 0.3888 -0.8320
vn -0.2633 0.8400 -0.4743
vn 0.3958 0.3888 -0.8320
vn 0.2633 0.8400 -0.4743
vn -0.3958 -0.3888 -0.8320
vn -0.2633 -0.8400 -0.4743
vn 0.3957 -0.3888 -0.8320
vn 0.8454 -0.2558 -0.4690
vn -0.3889 0.9213 0.0036
vn 0.3888 0.9213 0.0036
vn 0.7763 -0.0000 -0.6303
vn 0.0085 -0.9804 0.1968
vn 0.0389 -0.6218 -0.7822
vn 0.0213 0.9053 -0.4242
vn -0.7117 0.0075 -0.7024
vn 0.0415 -0.3709 0.9277
vn -0.0066 0.9654 0.2607
vn -0.9973 -0.0000 0.0733
vn 0.9092 0.0039 0.4163
vn -0.0160 0.7755 0.6312
vn 0.9838 -0.0000 -0.1794
vn -0.9983 0.0033 -0.0590
vn 0.0115 0.9732 -0.2298
vn -0.0040 -0.9956 -0.0936
vt 0.343462 0.169603
vt 0.161900 0.200192
vt 0.160578 0.183276
vt 0.755597 0.771948
vt 0.716386 0.653386
vt 0.755480 0.692366
vt 0.755480 0.692366
vt 0.874042 0.653155
vt 0.835062 0.692249
vt 0.835179 0.771832
vt 0.716617 0.811042
vt 0.755597 0.771948
vt 0.646289 0.845787
vt 0.646289 0.553675
vt 0.738554 0.517637
vt 0.564123 0.827138
vt 0.564123 0.565855
vt 0.908538 0.553292
vt 0.568922 0.884724
vt 0.810825 0.903897
vt 0.712309 0.950264
vt 0.693326 0.934640
vt 0.885615 0.853999
vt 0.850982 0.934640
vt 0.346131 0.199915
vt 0.173135 0.229806
vt 0.171813 0.212890
vt 0.835062 0.692249
vt 0.874273 0.810812
vt 0.835179 0.771832
vt 0.338437 0.108974
vt 0.148692 0.140239
vt 0.147371 0.123323
vt 0.887156 0.630310
vt 0.713285 0.708537
vt 0.635438 0.630310
vt 0.568922 0.602564
vt 0.920765 0.577604
vt 0.953222 0.784824
vt 0.576525 0.660150
vt 0.885666 0.508464
vt 0.933792 0.662340
vt 0.913770 0.792944
vt 0.603327 0.583807
vt 0.873642 0.582077
vt 0.864775 0.865784
vt 0.864775 0.708537
vt 0.761799 0.463509
vt 0.904814 0.528879
vt 0.635438 0.900631
vt 0.713285 0.865784
vt 0.795069 0.530161
vt 0.605333 0.912250
vt 0.897449 0.912250
vt 0.911499 0.862442
vt 0.917573 0.600193
vt 0.340342 0.132622
vt 0.346937 0.132129
vt 0.340845 0.139319
vt 0.349213 0.161258
vt 0.342620 0.161791
vt 0.342078 0.155097
vt 0.346842 0.130908
vt 0.340212 0.131446
vt 0.339669 0.124752
vt 0.344566 0.101779
vt 0.337934 0.102277
vt 0.150847 0.153544
vt 0.150344 0.146846
vt 0.349253 0.161255
vt 0.346977 0.132126
vt 0.152711 0.177154
vt 0.768092 0.746903
vt 0.346882 0.130905
vt 0.344606 0.101776
vt 0.149235 0.146933
vt 0.351620 0.191558
vt 0.349344 0.162429
vt 0.152168 0.170460
vt 0.344694 0.185381
vt 0.744629 0.943354
vt 0.569425 0.800157
vt 0.593504 0.856189
vt 0.347364 0.215692
vt 0.683130 0.468984
vt 0.615345 0.508464
vt 0.556520 0.797100
vt 0.637825 0.531167
vt 0.768049 0.717374
vt 0.146867 0.116626
s 1
f 34/1/1 21/2/2 32/3/3
s 0
f 28/4/4 6/5/4 38/6/4
f 38/7/4 7/8/4 33/9/4
f 24/10/4 5/11/4 28/12/4
f 6/5/5 2/13/5 3/14/5
f 18/15/6 11/16/6 12/17/6
f 6/5/7 4/18/7 7/8/7
f 8/19/8 2/20/8 5/21/8
f 7/22/9 1/23/9 8/24/9
s 1
f 29/25/10 36/26/11 27/27/12
s 0
f 33/28/4 8/29/4 24/30/4
s 1
f 39/31/13 31/32/14 37/33/15
s 0
f 11/34/16 16/35/16 12/36/16
f 19/37/17 10/38/17 20/39/17
f 18/40/18 9/41/18 19/42/18
f 17/43/19 10/44/19 11/45/19
f 14/46/20 16/35/20 15/47/20
f 10/38/21 13/48/21 14/49/21
f 9/50/22 16/35/22 13/51/22
f 10/44/23 15/52/23 11/45/23
f 2/53/24 17/43/24 3/54/24
f 1/23/25 18/40/25 19/42/25
f 2/20/26 19/37/26 20/39/26
f 3/55/27 18/15/27 4/56/27
s 1
f 23/57/28 24/58/29 25/59/30
f 28/60/31 29/61/10 30/62/32
f 33/63/33 34/64/1 35/65/34
f 38/66/35 39/31/13 40/67/36
f 23/57/28 22/68/37 21/69/2
f 28/70/31 25/59/30 24/71/29
f 27/72/12 30/62/32 29/61/10
f 38/6/35 29/73/10 28/4/31
f 37/33/15 40/67/36 39/31/13
f 33/74/33 39/31/13 38/75/35
f 32/76/3 35/65/34 34/64/1
f 24/77/29 34/1/1 33/78/33
f 25/59/30 26/79/38 22/68/37
f 34/1/1 23/80/28 21/2/2
s 0
f 28/4/4 5/11/4 6/5/4
f 38/7/4 6/5/4 7/8/4
f 24/10/4 8/29/4 5/11/4
f 6/5/39 5/11/39 2/13/39
f 18/15/40 17/81/40 11/16/40
f 6/5/41 3/14/41 4/18/41
f 8/19/42 1/82/42 2/20/42
f 7/22/43 4/83/43 1/23/43
s 1
f 29/25/10 40/84/36 36/26/11
s 0
f 33/28/4 7/8/4 8/29/4
s 1
f 39/31/13 35/65/34 31/32/14
s 0
f 11/34/44 15/47/44 16/35/44
f 19/37/45 9/85/45 10/38/45
f 18/40/46 12/86/46 9/41/46
f 17/43/47 20/87/47 10/44/47
f 14/46/20 13/51/20 16/35/20
f 10/38/48 9/85/48 13/48/48
f 9/50/22 12/36/22 16/35/22
f 10/44/23 14/88/23 15/52/23
f 2/53/49 20/87/49 17/43/49
f 1/23/50 4/83/50 18/40/50
f 2/20/51 1/82/51 19/37/51
f 3/55/52 17/81/52 18/15/52
s 1
f 23/57/28 25/59/30 22/68/37
f 28/70/31 30/62/32 25/59/30
f 27/72/12 26/79/38 30/62/32
f 38/6/35 40/89/36 29/73/10
f 37/33/15 36/90/11 40/67/36
f 33/74/33 35/65/34 39/31/13
f 32/76/3 31/32/14 35/65/34
f 24/77/29 23/80/28 34/1/1
f 25/59/30 30/62/32 26/79/38
