# Blender 4.3.2
# www.blender.org
o Cube
v -0.023269 0.023269 -0.002983
v -0.054446 0.054446 0.492631
v 0.023269 0.023269 -0.002983
v 0.054446 0.054446 0.492631
v -0.023269 -0.023269 -0.002983
v -0.054446 -0.054446 0.492631
v 0.023269 -0.023269 -0.002983
v 0.054446 -0.054446 0.492631
v -0.118854 0.118854 0.492631
v 0.118854 0.118854 0.492631
v 0.118854 -0.118854 0.492631
v -0.118854 -0.118854 0.492631
v -0.042195 0.042195 0.860051
v 0.042195 0.042195 0.860051
v 0.042195 -0.042195 0.860051
v -0.042195 -0.042195 0.860051
v 0.137746 -0.137746 0.555149
v -0.137746 -0.137746 0.555149
v -0.137746 0.137746 0.555149
v 0.137746 0.137746 0.555149
vn -0.0000 0.9980 -0.0628
vn 0.9980 -0.0000 -0.0628
vn -0.0000 -0.9980 -0.0628
vn -0.9980 -0.0000 -0.0628
vn -0.0000 -0.0000 -1.0000
vn -0.0000 -0.9542 0.2990
vn -0.0000 -0.0000 1.0000
vn -0.0000 0.9542 0.2990
vn -0.9542 -0.0000 0.2990
vn 0.9542 -0.0000 0.2990
vn 0.9572 -0.0000 -0.2893
vn -0.9572 -0.0000 -0.2893
vn -0.0000 0.9572 -0.2893
vn -0.0000 -0.9572 -0.2893
vt 0.681339 0.442430
vt 0.768532 0.352460
vt 0.768532 0.406336
vt 0.681339 0.666192
vt 0.746485 0.576221
vt 0.746485 0.630098
vt 0.681339 0.792256
vt 0.746485 0.702285
vt 0.746485 0.756162
vt 0.746485 0.666192
vt 0.811631 0.576221
vt 0.811631 0.630098
vt 0.881968 0.241802
vt 0.681339 0.316366
vt 0.755904 0.241802
vt 0.043468 0.411085
vt 0.251784 0.041173
vt 0.362404 0.411085
vt 0.755904 0.115738
vt 0.956532 0.041173
vt 0.881968 0.115738
vt 0.681340 0.041173
vt 0.956532 0.316366
vt 0.779037 0.540128
vt 0.681340 0.442430
vt 0.779037 0.442430
vt 0.362404 0.765080
vt 0.570720 0.473608
vt 0.681339 0.765080
vt 0.570720 0.041173
vt 0.681339 0.411085
vt 0.043468 0.843519
vt 0.251784 0.473608
vt 0.362404 0.843519
vt 0.065339 0.906043
vt 0.340532 0.906043
vt 0.384275 0.473608
vt 0.659468 0.473608
vt 0.384275 0.840523
vt 0.659468 0.840523
vt 0.065339 0.473608
vt 0.340532 0.473608
vt 0.681339 0.540128
vt 0.746485 0.540128
vt 0.154087 0.041173
vt 0.681340 0.540128
vt 0.473023 0.473608
vt 0.473023 0.041173
vt 0.154087 0.473608
s 0
f 2/1/1 3/2/1 1/3/1
f 4/4/2 7/5/2 3/6/2
f 8/7/3 5/8/3 7/9/3
f 6/10/4 1/11/4 5/12/4
f 8/13/5 12/14/5 6/15/5
f 17/16/6 16/17/6 18/18/6
f 2/19/5 10/20/5 4/21/5
f 6/15/5 9/22/5 2/19/5
f 4/21/5 11/23/5 8/13/5
f 14/24/7 16/25/7 15/26/7
f 19/27/8 14/28/8 20/29/8
f 18/18/9 13/30/9 19/31/9
f 20/32/10 15/33/10 17/34/10
f 10/35/11 17/34/11 11/36/11
f 12/37/12 19/31/12 9/38/12
f 9/39/13 20/29/13 10/40/13
f 11/41/14 18/18/14 12/42/14
f 2/1/1 4/14/1 3/2/1
f 4/4/2 8/43/2 7/5/2
f 8/7/3 6/4/3 5/8/3
f 6/10/4 2/44/4 1/11/4
f 8/13/5 11/23/5 12/14/5
f 17/16/6 15/45/6 16/17/6
f 2/19/5 9/22/5 10/20/5
f 6/15/5 12/14/5 9/22/5
f 4/21/5 10/20/5 11/23/5
f 14/24/7 13/46/7 16/25/7
f 19/27/8 13/47/8 14/28/8
f 18/18/9 16/48/9 13/30/9
f 20/32/10 14/49/10 15/33/10
f 10/35/11 20/32/11 17/34/11
f 12/37/12 18/18/12 19/31/12
f 9/39/13 19/27/13 20/29/13
f 11/41/14 17/16/14 18/18/14
