# Blender 4.3.2
# www.blender.org
o Tree01
v -0.034903 0.034903 -0.004475
v -0.026689 0.026689 0.134907
v 0.034903 0.034903 -0.004475
v 0.026689 0.026689 0.134907
v -0.034903 -0.034903 -0.004475
v -0.026689 -0.026689 0.134907
v 0.034903 -0.034903 -0.004475
v 0.026689 -0.026689 0.134907
v -0.107301 0.107301 0.153574
v 0.107301 0.107301 0.153574
v 0.107301 -0.107301 0.153574
v -0.107301 -0.107301 0.153574
v -0.034009 0.034009 0.686037
v 0.034009 0.034009 0.686037
v 0.034009 -0.034009 0.686037
v -0.034009 -0.034009 0.686037
v 0.124357 -0.124357 0.210015
v -0.124357 -0.124357 0.210015
v -0.124357 0.124357 0.210015
v 0.124357 0.124357 0.210015
v 0.074556 -0.074556 0.461776
v -0.074556 0.074556 0.461776
v -0.074556 -0.074556 0.461776
v 0.074556 0.074556 0.461776
vn -0.0000 0.9983 0.0588
vn 0.9983 -0.0000 0.0588
vn -0.0000 -0.9983 0.0588
vn -0.9983 -0.0000 0.0588
vn -0.0000 -0.2256 -0.9742
vn -0.0000 -0.9840 0.1779
vn -0.0000 0.2256 -0.9742
vn -0.2256 -0.0000 -0.9742
vn 0.2256 -0.0000 -0.9742
vn -0.0000 -0.0000 1.0000
vn -0.0000 0.9840 0.1779
vn -0.9840 -0.0000 0.1779
vn 0.9840 -0.0000 0.1779
vn 0.9572 -0.0000 -0.2893
vn -0.9572 -0.0000 -0.2893
vn -0.0000 0.9572 -0.2893
vn -0.0000 -0.9572 -0.2893
vn 0.9810 -0.0000 0.1941
vn -0.9810 -0.0000 0.1941
vn -0.0000 0.9810 0.1941
vn -0.0000 -0.9810 0.1941
vt 0.130219 0.100024
vt 0.192129 0.240332
vt 0.121962 0.240332
vt 0.200387 0.100024
vt 0.262297 0.240332
vt 0.270555 0.100024
vt 0.332465 0.240332
vt 0.340722 0.100024
vt 0.402633 0.240332
vt 0.332465 0.240332
vt 0.259682 0.797206
vt 0.125000 0.878235
vt 0.206029 0.797206
vt 0.635377 0.451051
vt 0.809408 0.089451
vt 0.874404 0.451051
vt 0.206029 0.743553
vt 0.340712 0.662524
vt 0.259682 0.743553
vt 0.125000 0.662524
vt 0.340712 0.878235
vt 0.439753 0.480894
vt 0.371383 0.412524
vt 0.439753 0.412524
vt 0.635377 0.451051
vt 0.809408 0.089451
vt 0.874404 0.451051
vt 0.582887 0.946669
vt 0.954235 0.857240
vt 0.926894 0.946669
vt 0.582887 0.946669
vt 0.954235 0.857240
vt 0.926894 0.946669
vt 0.954235 0.857240
vt 0.555546 0.857240
vt 0.555546 0.857240
vt 0.183872 0.100024
vt 0.254040 0.100024
vt 0.324208 0.100024
vt 0.394375 0.100024
vt 0.700374 0.089451
vt 0.371383 0.480894
vt 0.700374 0.089451
s 0
f 2/1/1 3/2/1 1/3/1
f 4/4/2 7/5/2 3/2/2
f 8/6/3 5/7/3 7/5/3
f 6/8/4 1/9/4 5/10/4
f 8/11/5 12/12/5 6/13/5
f 21/14/6 16/15/6 23/16/6
f 2/17/7 10/18/7 4/19/7
f 6/13/8 9/20/8 2/17/8
f 4/19/9 11/21/9 8/11/9
f 14/22/10 16/23/10 15/24/10
f 22/25/11 14/15/11 24/16/11
f 23/14/12 13/15/12 22/16/12
f 24/25/13 15/26/13 21/27/13
f 10/28/14 17/29/14 11/30/14
f 12/31/15 19/32/15 9/33/15
f 9/28/16 20/34/16 10/33/16
f 11/31/17 18/32/17 12/33/17
f 20/35/18 21/27/18 17/29/18
f 18/36/19 22/16/19 19/32/19
f 19/35/20 24/16/20 20/34/20
f 17/36/21 23/16/21 18/32/21
f 2/1/1 4/37/1 3/2/1
f 4/4/2 8/38/2 7/5/2
f 8/6/3 6/39/3 5/7/3
f 6/8/4 2/40/4 1/9/4
f 8/11/5 11/21/5 12/12/5
f 21/14/6 15/41/6 16/15/6
f 2/17/7 9/20/7 10/18/7
f 6/13/8 12/12/8 9/20/8
f 4/19/9 10/18/9 11/21/9
f 14/22/10 13/42/10 16/23/10
f 22/25/11 13/43/11 14/15/11
f 23/14/12 16/41/12 13/15/12
f 24/25/13 14/43/13 15/26/13
f 10/28/14 20/35/14 17/29/14
f 12/31/15 18/36/15 19/32/15
f 9/28/16 19/35/16 20/34/16
f 11/31/17 17/36/17 18/32/17
f 20/35/18 24/25/18 21/27/18
f 18/36/19 23/14/19 22/16/19
f 19/35/20 22/25/20 24/16/20
f 17/36/21 21/14/21 23/16/21
