# Blender 4.4.3
# www.blender.org
o Plane
v -625.000000 -14.868820 24.999996
v -624.999939 -14.868820 -475.000000
v 25.000000 -14.868820 25.000101
v 25.000061 -14.868820 -474.999908
v -643.914185 -14.868820 39.549366
v -643.914124 -14.868820 -489.549347
v 43.914185 -14.868820 39.549480
v 43.914246 -14.868820 -489.549255
v 25.000000 8.849506 25.000101
v 28.334595 11.849506 27.565161
v 28.334656 11.849506 -477.564972
v 25.000061 8.849506 -474.999908
v -624.999939 8.849506 -475.000000
v -628.334473 11.849506 -477.565063
v -628.334595 11.849506 27.565054
v -625.000000 8.849506 24.999996
v 40.579590 11.849506 36.984417
v 43.914185 8.849506 39.549480
v -640.579529 11.849506 -486.984283
v -643.914124 8.849506 -489.549347
v -643.914185 8.849506 39.549366
v -640.579590 11.849506 36.984306
v 43.914246 8.849506 -489.549255
v 40.579651 11.849506 -486.984192
vn -0.0000 1.0000 -0.0000
vn -0.0000 -0.0000 1.0000
vn -1.0000 -0.0000 -0.0000
vn -0.0000 -1.0000 -0.0000
vn 1.0000 -0.0000 -0.0000
vn -0.0000 -0.0000 -1.0000
vn -0.6688 0.7434 -0.0000
vn 0.6688 0.7434 -0.0000
vn -0.0000 0.6499 0.7601
vn -0.0000 0.6499 -0.7601
vt 0.462887 0.010307
vt 0.455057 0.002206
vt 0.890581 0.002206
vt 0.882752 0.010307
vt 1.000000 0.561908
vt 0.979601 0.561908
vt 0.979601 0.002868
vt 1.000000 0.002868
vt 0.908082 0.455057
vt 0.894439 0.455057
vt 0.894439 0.000000
vt 0.908082 0.000000
vt 0.882752 0.444750
vt 0.890581 0.452851
vt 0.931062 0.591575
vt 0.910662 0.591575
vt 0.910662 0.000000
vt 0.931062 0.000000
vt 0.442544 0.016267
vt 0.012513 0.016267
vt -0.000000 0.000000
vt 0.455057 0.000000
vt 0.478037 0.910115
vt 0.457637 0.910115
vt 0.457638 0.455057
vt 0.478037 0.455057
vt 0.480388 0.442544
vt 0.466744 0.442544
vt 0.466744 0.012513
vt 0.480388 0.012513
vt 0.455057 0.591575
vt 0.442544 0.575307
vt 0.954041 0.591575
vt 0.933642 0.591575
vt 0.933642 0.000000
vt 0.954041 0.000000
vt -0.000000 0.591575
vt 0.012513 0.575307
vt 0.455057 0.452851
vt 0.462887 0.444750
vt 0.501016 0.887294
vt 0.480617 0.887294
vt 0.480617 0.457263
vt 0.501016 0.457263
vt 0.478037 0.889500
vt 0.478037 0.455057
vt 0.977021 0.564776
vt 0.977021 0.000000
vt 0.954041 0.564776
vt 0.954041 0.000000
vt 0.956621 0.002868
vt 0.956621 0.561908
vt 0.977020 0.561908
vt 0.977021 0.002868
vt 0.455057 0.907909
vt 0.455057 0.457263
vt 0.931062 0.588707
vt 0.931062 0.002868
vt 0.908082 0.588707
vt 0.908082 0.002868
s 0
f 11/1/1 24/2/1 19/3/1 14/4/1
f 4/5/2 12/6/2 13/7/2 2/8/2
f 5/9/3 21/10/3 20/11/3 6/12/3
f 15/13/1 14/4/1 19/3/1 22/14/1
f 7/15/2 18/16/2 21/17/2 5/18/2
f 3/19/4 4/20/4 8/21/4 7/22/4
f 8/23/5 23/24/5 18/25/5 7/26/5
f 3/27/3 9/28/3 12/29/3 4/30/3
f 5/31/4 1/32/4 3/19/4 7/22/4
f 6/33/6 20/34/6 23/35/6 8/36/6
f 1/32/4 5/31/4 6/37/4 2/38/4
f 22/14/1 17/39/1 10/40/1 15/13/1
f 2/41/5 13/42/5 16/43/5 1/44/5
f 4/20/4 2/38/4 6/37/4 8/21/4
f 12/29/7 9/28/7 10/40/7 11/1/7
f 16/43/8 13/42/8 14/45/8 15/46/8
f 11/47/9 14/48/9 13/7/9 12/6/9
f 15/49/10 10/50/10 9/51/10 16/52/10
f 1/53/6 16/52/6 9/51/6 3/54/6
f 24/55/8 17/56/8 18/25/8 23/24/8
f 22/14/7 19/3/7 20/11/7 21/10/7
f 23/35/10 20/34/10 19/57/10 24/58/10
f 21/17/9 18/16/9 17/59/9 22/60/9
f 10/40/1 17/39/1 24/2/1 11/1/1
